<svg id="Layer_1" data-name="Layer 1" xmlns="http://www.w3.org/2000/svg" viewBox="0 0 161 204"><defs><style>.cls-1{fill:#fbd646;}.cls-2{fill:#ffedd3;}.cls-3{fill:#cc9008;}.cls-4{fill:#ab8941;}.cls-5{fill:#1f120d;}.cls-6{fill:#f1b942;}.cls-7{fill:#271a13;}.cls-8{fill:#00b1d6;}</style></defs><title>MASKS</title><path class="cls-1" d="M16.64,123.71s2.05,10.15,2.61,14.23,1.12,19.61,2.31,21.86,2.84,5,8.33,6,14.87,2.8,23.51,6.78,16,7.72,16,7.72a12.25,12.25,0,0,0,8.14,9.81c7.49,2.71,14.06,5.5,19.07,1.25s9.11-11,9.11-11l3.44-4.25s8.52-7.73,14-11.42,6.46-1,7.48-5.14-.06-16.39.29-20.2,2.5-13.46,2.5-13.46Z"/><path class="cls-2" d="M19.45,127.21s2.95,9.67,4.23,16.26a29.94,29.94,0,0,1,.58,4.1,4.94,4.94,0,0,0,.85-2.88,57.86,57.86,0,0,1,1.36,10.93c.22,6.43,7.76,8,11.52,9.27a24.42,24.42,0,0,0,6.49,1.29L43.25,164A22.89,22.89,0,0,1,49,169.17a8.73,8.73,0,0,0,4.43,3.45s-17.07-5-19.7-5.47-12.45-2.78-12.64-9.22-1.81-20-1.81-20l-2.1-11.33Z"/><path class="cls-2" d="M71.2,164s-5,32.85,30.65,23.18c0,0-11.64,13.35-26.23,1.23C75.62,188.41,62,176.14,71.2,164Z"/><path class="cls-3" d="M131.14,128s-1.59,2.73-2.63,9.67-1.18,11.91-1.32,13.07-5.12,6.32-7.76,5.92-7.42-3.69-7.42-3.69-6.94,14.82-6.87,15,2,7.16,2,7.16l.28,3.74s8.87-9.41,10.92-10.39,11.17-5.74,11.78-6.14,1.6-3.27,1.56-4.43-.45-20.39-.07-22.68,1.33-8.08,3.32-8.66Z"/><path class="cls-3" d="M71.88,159.29S69.05,183.16,88,184.39s19.37-12.55,19.37-12.55l.78-10.65-3-13L80,145.32l-8.23,6.26Z"/><path class="cls-3" d="M21.7,127.21s6.42,15.51,7.15,22.4.7,10.3,13.22,13.57c0,0-4.26-3.9-4.35-4.53,0,0,12.94,7.66,18.49,9.77a26.83,26.83,0,0,1-5.45,0s6.92,6.47,11.68,8.47a42.64,42.64,0,0,1,6.91,3.45s-2-11.85,1.85-16.34.51-14.52.51-14.52Z"/><path class="cls-4" d="M80.69,161.3s5.72,4.27,9.72,3.41,2.39-4.27,2.39-4.27.64,5.32,5.69,4.33,5.18-3.88,5.18-3.88l-.23-4.09s-1.26,2.51-5.89,1.6-4.49-1.6-4.49-1.6a8.4,8.4,0,0,1-8.61-.17l-2-1.47A10.17,10.17,0,0,0,80.69,161.3Z"/><path class="cls-5" d="M17.75,125.41c1.56,7.18,2.89,14.4,3.81,21.73.22,1.83.43,3.66.62,5.51.12.92.18,1.84.28,2.77l.12,1.32c.05.42.1.84.18,1.24A8.11,8.11,0,0,0,24.63,162a7.26,7.26,0,0,0,1.73,1.32,14,14,0,0,0,2.22,1,52.35,52.35,0,0,0,5.12,1.33c1.78.38,3.59.77,5.39,1.22a64.9,64.9,0,0,1,10.65,3.46c1.73.77,3.33,1.59,5,2.38l5,2.35c1.66.78,3.31,1.57,5,2.32s3.35,1.53,5,2.21l-.58,1.53c-1.76-.73-3.39-1.47-5.08-2.22l-5-2.24-5-2.24c-1.67-.73-3.36-1.52-5-2.2a48.35,48.35,0,0,0-10.37-2.83c-1.78-.29-3.58-.52-5.41-.79a40.24,40.24,0,0,1-5.58-1.12,14.17,14.17,0,0,1-2.84-1.14,9.65,9.65,0,0,1-2.61-2,9,9,0,0,1-1.72-2.84,12.15,12.15,0,0,1-.68-3.05c-.06-.51-.08-1-.09-1.5,0-.25,0-.49,0-.74v-.68c0-.9.05-1.81,0-2.72,0-1.81-.09-3.63-.22-5.44a180.29,180.29,0,0,0-2.91-21.68Z"/><path class="cls-5" d="M111.2,147s-.68,12.59,4.81,11.12c4.09-1.1,7.68-4.72,9.26-6.51a2.91,2.91,0,0,0,.72-2c-.07-1.9.3-7.14,3.71-20.5l-17.86,3.43Z"/><path class="cls-5" d="M68.71,172.85a24.27,24.27,0,0,0,1.74,7.76,18.4,18.4,0,0,0,4.28,6.29,19.91,19.91,0,0,0,13.74,5.38h1l1-.05c.32,0,.63-.07.95-.1l.46-.05.43-.08a12.12,12.12,0,0,0,3.33-1.2,21.58,21.58,0,0,0,5.83-4.64,20.49,20.49,0,0,0,5.49-14.23,15.08,15.08,0,0,1,.43,8.33,20.49,20.49,0,0,1-3.6,7.78,20,20,0,0,1-6.59,5.73,15,15,0,0,1-4.31,1.49l-.58.09c-.2,0-.37,0-.55,0-.36,0-.72.07-1.08.09l-1.08,0H88.41a23.18,23.18,0,0,1-8.48-1.8,20.06,20.06,0,0,1-3.81-2.13,19.05,19.05,0,0,1-3.25-2.9,18.33,18.33,0,0,1-4.08-7.52A17.07,17.07,0,0,1,68.71,172.85Z"/><path class="cls-5" d="M133.67,127.35c-.55,2.62-.95,5.27-1.25,7.92s-.42,5.31-.43,8,.13,5.33.24,8c.06,1.34.12,2.69.13,4.07a21.75,21.75,0,0,1-.26,4.27,8.3,8.3,0,0,1-.31,1.13c-.08.19-.14.38-.23.56l-.3.55a5.85,5.85,0,0,1-1.73,1.77,13.16,13.16,0,0,1-2,1c-.64.29-1.26.55-1.88.8-1.22.51-2.43,1.06-3.56,1.66a28.3,28.3,0,0,0-3.24,2.14,110.54,110.54,0,0,0-11.8,10.83l-.92-.81c1.76-2.08,3.57-4.09,5.48-6a72.18,72.18,0,0,1,6-5.56,29.63,29.63,0,0,1,3.43-2.42,34,34,0,0,1,3.73-1.85,26.05,26.05,0,0,0,3.46-1.64,3.78,3.78,0,0,0,1.1-1.08l.19-.34c0-.11.09-.25.14-.37a5.08,5.08,0,0,0,.24-.81,18,18,0,0,0,.2-3.8c0-1.32-.1-2.66-.16-4-.11-2.7-.13-5.43,0-8.16a69.62,69.62,0,0,1,2.58-16.12Z"/><path class="cls-5" d="M85.91,164.17a13.47,13.47,0,0,0,2.23.32,5.92,5.92,0,0,0,2.12-.19,2.84,2.84,0,0,0,1.57-1.09,4.09,4.09,0,0,0,.69-1.86l.45-2.79.61,2.76a5.2,5.2,0,0,0,.77,1.7,3.49,3.49,0,0,0,1.39,1.22,4.34,4.34,0,0,0,1.88.4c.34,0,.68,0,1-.06l1-.19-1,.47c-.34.1-.69.23-1,.3a4.55,4.55,0,0,1-2.25-.15,4.11,4.11,0,0,1-1.88-1.38,5.08,5.08,0,0,1-.61-1,6,6,0,0,1-.41-1.1l1.07,0a5.06,5.06,0,0,1-.93,2.35,3.56,3.56,0,0,1-2.19,1.29,5.9,5.9,0,0,1-2.41-.1A8.09,8.09,0,0,1,85.91,164.17Z"/><path class="cls-1" d="M72.32,152.94s-1.07,5.28-9.37,5.71-13.68-1-17.7-1.55-11.18-4.6-11.18-4.6Z"/><path class="cls-5" d="M24.26,127.82s4.5,6.83,7.3,21.58a4.2,4.2,0,0,0,2.51,3.1c7.32,3.06,40.63,12.8,37.43-4.93,0,0-.9-2.89.38-8.82s-.08-4.14-5.83-4.7S31.08,131,24.26,127.82Z"/><path class="cls-1" d="M17.43,85.14s-10.56,23.28-9.09,36c0,0,23.31,13.8,62.38,13.39a1.51,1.51,0,0,1,1.48,1.87c-1.25,5.07-1.89,18.45,7.1,33.1,0,0,.48-10.9,2.62-14.42a.67.67,0,0,1,1,0c1.43,1.39,5.74,4.89,10.06,1.34,0,0,6.31,4.26,10.22-.15a.33.33,0,0,1,.58.21l1.57,13.28s8.65-8.21,6-35.79a2,2,0,0,1,1.63-2.12c5.24-.86,20.32-3.55,25.24-6.68,0,0,0-11-4.88-29l-13-35.6S91.3,30.88,37.58,49.39C37.58,49.39,25.66,60.43,17.43,85.14Z"/><path class="cls-2" d="M84.09,44.58l-9,12s5,2.41,8.07,1.95,9.39,4.38,10.89,5c0,0-4.83-3.51-4.35-7.14s2.76-4.78,2.76-4.78S91.1,56,92.42,58.46s2.1,3,2.1,3-1.13-4.61.73-7.24a38.91,38.91,0,0,1,5-5.41S86.68,44.13,84.09,44.58Z"/><path class="cls-2" d="M124.65,120.35a7,7,0,0,0,3.86-4.74,11.62,11.62,0,0,1-.77,7.38L121,125.22a19.5,19.5,0,0,1-4.1.39s9-1.82,10.53-6.44A5.52,5.52,0,0,1,124.65,120.35Z"/><polygon class="cls-2" points="105.92 136.21 106.39 141.7 103.71 146.6 104.46 137.16 105.92 136.21"/><path class="cls-2" d="M97,135.17a2.18,2.18,0,0,1,.55,2.26A26.38,26.38,0,0,1,95.68,141l-3.52,4.77.41-7.69A4.37,4.37,0,0,1,97,135.17Z"/><path class="cls-2" d="M85.3,135.17s3-.48,1.51,1.88a44,44,0,0,1-3,4.26l-2.53,3.38.4-6.55S83.25,135.43,85.3,135.17Z"/><path class="cls-2" d="M72.2,136.43s2.86-2.89,4.22-2.88,1,2.73.7,3.54a14.26,14.26,0,0,1-1.5,2.23s.43-1.78-.81-1.61a9.18,9.18,0,0,0-2.27.63Z"/><path class="cls-2" d="M33.7,120.08s5.65,9.29,27.11,10.57c0,0-15-2.41-17.13-6Z"/><path class="cls-2" d="M22.13,96.21s5.71-1.36,8.83-.83c0,0-6.54,15.92,7.62,24.7a5,5,0,0,1,0-3.81s4.25,7.36,5.9,8.78c0,0-11.35-4.93-15.79-7.62a85.35,85.35,0,0,1-9.3-6.81Z"/><path class="cls-2" d="M17.43,86.87a15.61,15.61,0,0,1,.73,7.95c-.86,3.88,1.29,12.44,1.29,12.44v4.11s-8.4,6.18-10.58,8.1c0,0,1.73-15.77,2.8-19S17.43,86.87,17.43,86.87Z"/><path class="cls-3" d="M17.43,85.14s1.41,3.06,4.41,3.09.69,6.59.69,6.59,9.21-3.94,14.37-1.15l3-6.5S22.9,86.81,17.43,85.14Z"/><path class="cls-6" d="M72.54,139.36a7,7,0,0,1,4.43.39,9.22,9.22,0,0,1,4.31,4.94s2.36-5.55,6.8-4.47,4.63,7.58,4.63,7.58-.93-7.67,5.29-7.12c0,0,5,1.06,5.71,5.92,0,0,2.08-7.6,7.46-6.65,0,0,2.41,18.6-5,27.77l-.7-.95L103.89,156a15.31,15.31,0,0,1-3.78,1.84,20.22,20.22,0,0,1-4.22-.19l-3.25-1.18a5.89,5.89,0,0,1-6,.71,18.69,18.69,0,0,1-4.28-2.59,9.72,9.72,0,0,0-2.57,5.61l-.91,7.91a61.2,61.2,0,0,1-4.51-10,77.2,77.2,0,0,1-2.06-8.8S71.77,139.79,72.54,139.36Z"/><path class="cls-4" d="M72.75,148.26s3.53,11.19,4.37,11.43,2.6-10.36,2.43-13.48a36.82,36.82,0,0,0-.62-5.2s2.52,3,2.53,4.1c0,0,1.27-3.22,2.35-3.8s1.56-.9,1.56-.9a8.68,8.68,0,0,0-3,6.31c0,3.95.76,7.47,1.83,7.9s4.26,1.56,5.31.54.48-10.12,0-11.53-.75-2.73-.75-2.73,3.27,1.74,3.39,4.84,1-2,1-2,1.8-2.55,2.56-2.77a5.79,5.79,0,0,1,2.93-.1s-2.52-.39-3.23,1.67-1.54,6-1.26,7.51-.75,4.51,1.36,5.11,4-.17,4.72-3.77a49.73,49.73,0,0,0,.31-9.71s3.22,2.67,3.2,4.92c0,0,1.77-5,3.52-5.65a19.31,19.31,0,0,0-1.86,6.26c-.14,2.79.29,8.1.77,9.21s2.09,0,2.22-1.26.91-9.64.73-11.8a13.49,13.49,0,0,0-.55-3.17s2-.69,2.78-.14l-.15,8.16-.56,6.6s-.9,5.64-1,5.7-3.81,7.91-3.81,7.91l-2-11.7A15.69,15.69,0,0,1,99.15,158c-1.78,0-6.16-1.58-6.16-1.58s-3.41,1.94-6.11.83-5-2.17-5-2.17L80,162.31l-1.13,5.34-2.66-3.9-4.06-12.59Z"/><path class="cls-3" d="M107.42,134.13l.81,6.19s2.28-.8,3.09-.27l-.34-7.36A6.68,6.68,0,0,0,107.42,134.13Z"/><path class="cls-3" d="M104.73,138.86l-1,7.74s-1.65-5.38-4.74-5.94c0,0,1-5.25.46-6.38S104.35,136.44,104.73,138.86Z"/><path class="cls-3" d="M92.57,138.05v7.53s-1.61-5-5.3-5.49c0,0,3.28-4.15,1.36-4.92C88.63,135.17,92.05,135.1,92.57,138.05Z"/><path class="cls-3" d="M81.68,138.14l-.4,6.55s-1.47-4.45-4.79-5.15c0,0,2.08-2,1.87-4.08S77,132.37,76,132.85s.85-.86.85-.86,3.7.08,4.15.88S81.68,138.14,81.68,138.14Z"/><path class="cls-3" d="M108.72,123.71s-.52,4.33,10.71,1.92l-7.89,6.82a15.37,15.37,0,0,1-3.54,2c-1.27.31-3.27,4.44-3.27,4.44s-6-8-12.16-.81c0,0-5.49-7.19-10.89.09,0,0-1.29-5.18-4.1-5.45-.7-.07-.87-1.31,1.45-1.4,7-.27,25.43.31,25.43.31Z"/><path class="cls-3" d="M77,125.92s-8,8.34-27.48,4.28-18.83-11.34-18.83-11.34l-10.63-7-3.42.74-8.3,7.35,5.55,4s24.56,8.12,36,9.49,19.17.4,20.87,1.16a6.5,6.5,0,0,1,2,1.17s1.43-3.3,4.83-3l1-1.31Z"/><path class="cls-3" d="M36.9,87.09s-7.2,13.11,0,25.46c0,0-.68-3.81,1.18-6,0,0,3.08,15.87,16.61,18.64,0,0-1.24,1.37-6.4.33s14.1,9.05,28.71.39l1.1,5.68h28.63l-3-11.34s7.92,9.86,21,1a7.45,7.45,0,0,1-2.82-.54s6.37-5.09,6.6-10.49a34.1,34.1,0,0,1,.77,3.48s1.07,8.46-1.14,9.23-13.78,4.22-13.78,4.22-3.3,2.53-3.38,5.48a6.52,6.52,0,0,1,3.94-1.54c2.23,0,21.25-4.78,22.3-5.36s1.86-2.8,1.86-2.8l-6.44-28.68-27-42.77-3.42-2.23s-7.64,8.07-4.74,15c2.1,5-5,.27-5,.27s-7-3.88-11.92-4.52-7.05-2.29-7.05-2.29L84.09,44.58l-12.43-.82Z"/><path class="cls-5" d="M18.35,85.49l-.47,1.11-.45,1.08c-.28.72-.58,1.44-.85,2.16-.56,1.45-1.11,2.9-1.61,4.37-1,2.93-2,5.88-2.74,8.87-.42,1.49-.74,3-1.08,4.5s-.61,3-.79,4.51l-.16,1.14c0,.37-.06.75-.09,1.12L10,115.48a10.61,10.61,0,0,0,0,1.12c0,.74,0,1.48,0,2.21L10.2,121l-.91-1.4h0c.81.48,1.75,1,2.67,1.44l1.39.7,1.41.65c1.89.87,3.82,1.67,5.77,2.42,1,.39,2,.73,2.94,1.08s2,.71,3,1l3,.94,3,.83L34,129l1.53.36,3.07.72c2,.45,4.12.82,6.18,1.22s4.16.64,6.24.92,4.18.47,6.28.66l6.3.41,6.31.13.79,0a2.6,2.6,0,0,1,2.61,2.6,4,4,0,0,1-.09.64l-.08.36c0,.25-.11.49-.15.74-.08.5-.18,1-.23,1.51a37.42,37.42,0,0,0-.19,6.18,44.21,44.21,0,0,0,.74,6.17c.22,1,.41,2,.7,3,.14.51.26,1,.41,1.51l.48,1.48A50.48,50.48,0,0,0,80.23,169h0l-2,.53c.21-2.31.49-4.56.85-6.83.19-1.13.39-2.26.66-3.38a19.22,19.22,0,0,1,1-3.37,7,7,0,0,1,.4-.83l.11-.2.06-.11a.8.8,0,0,1,.14-.18,1.13,1.13,0,0,1,.87-.38,1.51,1.51,0,0,1,.74.19,1.43,1.43,0,0,1,.31.24l.15.14.59.54a9.84,9.84,0,0,0,2.7,1.66,5.75,5.75,0,0,0,3,.37A6.19,6.19,0,0,0,92.63,156h0l.33-.24.33.21a12.8,12.8,0,0,0,2.57,1.19,8.7,8.7,0,0,0,2.74.46,5.08,5.08,0,0,0,2.56-.62,3.84,3.84,0,0,0,.54-.35l.27-.19.24-.23.55-.55a1.08,1.08,0,0,1,1.12-.17,1.1,1.1,0,0,1,.66,1v-.07l.94,6.62,1,6.61h0l-1.84-.66a8.12,8.12,0,0,0,.57-.64c.2-.24.38-.52.57-.78a18.7,18.7,0,0,0,1-1.69,28.58,28.58,0,0,0,1.61-3.66,46.38,46.38,0,0,0,1.93-7.87,78.89,78.89,0,0,0,.55-16.34l-.31-4.16a2.88,2.88,0,0,1,1.39-2.49,3,3,0,0,1,.69-.3c.28-.07.42-.08.59-.12l1-.18c2.7-.49,5.4-1,8.08-1.62s5.33-1.3,7.94-2.09c1.3-.39,2.57-.85,3.82-1.33a18.94,18.94,0,0,0,3.43-1.72h0l-.66,1.21c0-1.14-.07-2.37-.15-3.57s-.2-2.4-.33-3.61c-.26-2.41-.62-4.81-1-7.21s-.87-4.79-1.39-7.16c-.24-1.2-.54-2.38-.81-3.57l-.88-3.54,0,.1-6.45-17.82-3.22-8.91L119.35,61h0l.25.38A42.51,42.51,0,0,0,115.52,58c-1.44-1.07-2.94-2-4.47-3a69.81,69.81,0,0,0-9.61-4.86,77.36,77.36,0,0,0-20.87-5.26A87.92,87.92,0,0,0,59,45.32a112.25,112.25,0,0,0-21,5.09h0l.39-.23c-.57.52-1.18,1.15-1.74,1.76s-1.13,1.26-1.67,1.92-1.07,1.32-1.59,2-1,1.37-1.52,2a99.32,99.32,0,0,0-5.41,8.69c-.8,1.51-1.62,3-2.33,4.56-.36.78-.75,1.54-1.09,2.32l-1,2.35c-.36.78-.67,1.58-1,2.38l-.93,2.39C19.46,82.22,18.92,83.86,18.35,85.49Zm-1.83-.71c.59-1.62,1.15-3.23,1.77-4.85l1-2.41c.32-.81.65-1.61,1-2.4l1-2.38c.35-.8.75-1.57,1.13-2.35.73-1.58,1.56-3.11,2.36-4.65a99.82,99.82,0,0,1,5.44-8.9c.5-.72,1-1.45,1.51-2.14s1-1.41,1.58-2.09,1.11-1.36,1.68-2,1.14-1.32,1.81-2l.16-.16.23-.07h0a113.66,113.66,0,0,1,21.46-5.2,96.85,96.85,0,0,1,11-.9,93.16,93.16,0,0,1,11.08.47,78.94,78.94,0,0,1,21.46,5.41,71.53,71.53,0,0,1,9.92,5c1.58,1,3.13,2,4.62,3.1a41.73,41.73,0,0,1,4.33,3.62l.16.16.09.23h0l3.25,8.9,3.28,8.89,6.56,17.77,0,0v0l1,3.58c.29,1.2.6,2.39.87,3.6q.84,3.6,1.52,7.25c.44,2.44.83,4.88,1.15,7.34.16,1.23.31,2.47.42,3.71s.22,2.46.26,3.78l0,.83-.69.38h0a35.86,35.86,0,0,1-8.16,2.87c-2.71.7-5.43,1.26-8.15,1.8s-5.45,1-8.19,1.46l-1,.16a1.86,1.86,0,0,0-.68.18,1.07,1.07,0,0,0-.55,1l.29,4.09a89,89,0,0,1-.51,16.71,52.26,52.26,0,0,1-1.88,8.22,32.93,32.93,0,0,1-1.6,4c-.31.65-.68,1.27-1,1.9-.21.31-.39.62-.62.92a7.44,7.44,0,0,1-.77.94l-1.57,1.64-.26-2.3h0l-.61-6.66L103,156.6v-.07a.42.42,0,0,0,.68.31l-.53.49-.3.27-.36.24a4.72,4.72,0,0,1-.72.43,6.59,6.59,0,0,1-3.21.67,10.5,10.5,0,0,1-3.12-.64,13.53,13.53,0,0,1-2.8-1.39l.66,0h0a7.26,7.26,0,0,1-3.28,1.57,6.69,6.69,0,0,1-3.63-.36,11.25,11.25,0,0,1-3.11-1.77c-.23-.19-.46-.38-.68-.58l-.16-.15,0,0h-.06a.17.17,0,0,0,.11-.07h0l0,.09-.09.17a4.91,4.91,0,0,0-.3.7,17.86,17.86,0,0,0-.82,3.16c-.21,1.08-.36,2.19-.47,3.3-.24,2.21-.37,4.47-.39,6.68l0,4-2-3.47h0a54.38,54.38,0,0,1-7.84-24.49,38.59,38.59,0,0,1,.15-6.53c0-.54.14-1.09.23-1.63a7.43,7.43,0,0,1,.16-.82l.08-.42a.45.45,0,0,0,0-.14.41.41,0,0,0-.23-.37.3.3,0,0,0-.21,0H63.52l-6.4-.3a149.2,149.2,0,0,1-25.37-3.83l-3.12-.77-3.1-.88c-1-.28-2.06-.62-3.08-.95s-2.05-.64-3.06-1c-2-.7-4.05-1.47-6.05-2.3L11.85,125l-1.48-.67c-1-.47-1.95-.93-3-1.5h0l-.86-.53,0-.86a38,38,0,0,1,.87-9.8c.28-1.58.69-3.12,1.06-4.66s.85-3.06,1.35-4.56c1-3,2-6,3.14-8.92.57-1.47,1.14-2.93,1.75-4.38.3-.73.61-1.45.92-2.17l.48-1.09Z"/><path class="cls-5" d="M26.32,86.33a46.24,46.24,0,0,0-2.38,6c-.68,2.06-1.24,4.15-1.74,6.26S21.3,102.83,21,105c-.18,1.06-.29,2.15-.44,3.22s-.22,2.16-.33,3.23h0l-.27-.65a69,69,0,0,0,7.13,5c2.48,1.56,5,3,7.63,4.38s5.24,2.66,7.93,3.86c1.33.62,2.69,1.17,4,1.76l4.1,1.64L46.6,126c-1.38-.54-2.77-1-4.13-1.59q-4.11-1.64-8.12-3.53c-2.66-1.28-5.3-2.62-7.87-4.09-1.29-.74-2.56-1.49-3.81-2.29S20.19,112.88,19,112l-.31-.24,0-.41h0c.13-1.1.25-2.19.39-3.28s.3-2.19.5-3.27c.36-2.17.82-4.33,1.35-6.46S22.09,94,22.81,92a46.6,46.6,0,0,1,2.56-6.14Z"/><path class="cls-5" d="M19.77,112.1a23.52,23.52,0,0,0-3.18,1.73A25.91,25.91,0,0,0,13.65,116c-.48.38-.92.81-1.37,1.22s-.87.86-1.26,1.33a23.29,23.29,0,0,0-2.22,2.91l-.93-.57a25.5,25.5,0,0,1,2.23-3.14c.39-.5.85-1,1.28-1.43s.9-.91,1.39-1.33a27.6,27.6,0,0,1,3-2.38,25.17,25.17,0,0,1,3.35-2Z"/><path class="cls-5" d="M131.85,97.41q.87,5.81,1.44,11.63c.19,1.95.33,3.9.43,5.87a35.08,35.08,0,0,1-.14,6h0l0,.29-.23.15a7.49,7.49,0,0,1-1,.56c-.32.16-.64.3-1,.44-.65.28-1.31.52-2,.75q-2,.69-4,1.23c-1.34.37-2.69.69-4,1s-2.71.58-4.06.85c1.33-.38,2.65-.77,4-1.19s2.62-.85,3.91-1.33,2.57-1,3.82-1.53c.62-.28,1.24-.57,1.83-.89.3-.15.6-.31.88-.48s.58-.37.77-.51l-.26.44h0a33.72,33.72,0,0,0,.19-5.71c-.06-1.93-.18-3.86-.34-5.8-.32-3.86-.76-7.74-1.28-11.58Z"/><path class="cls-5" d="M133.05,120.16a7.44,7.44,0,0,1,.93.39q.42.23.81.48a11.73,11.73,0,0,1,1.48,1.12,15.81,15.81,0,0,1,1.29,1.3c.41.46.78.94,1.14,1.43l-.88.64c-.35-.45-.71-.89-1.09-1.31A15.07,15.07,0,0,0,135.5,123a11.68,11.68,0,0,0-1.35-1c-.24-.14-.48-.28-.72-.39a5.86,5.86,0,0,0-.7-.29Z"/><path class="cls-5" d="M73.23,139.18a7.93,7.93,0,0,1,2.87.16,7.06,7.06,0,0,1,2.63,1.27,7.32,7.32,0,0,1,1.9,2.24,10.19,10.19,0,0,1,1,2.75l-.62,0a7.52,7.52,0,0,1,1.89-4.26,5.36,5.36,0,0,1,2-1.32,5.94,5.94,0,0,1,2.41-.27,4.76,4.76,0,0,1,2.32.86,6.46,6.46,0,0,1,1.67,1.75,12,12,0,0,1,1.71,4.37l-1.07.09a11.35,11.35,0,0,1,.35-2.54,7.84,7.84,0,0,1,1-2.38,4.53,4.53,0,0,1,2.08-1.73,5.17,5.17,0,0,1,2.66-.24,5.85,5.85,0,0,1,2.44,1,7.06,7.06,0,0,1,1.78,1.88,9.91,9.91,0,0,1,1.1,2.27,11.76,11.76,0,0,1,.6,2.44h-.69a15.15,15.15,0,0,1,.9-2.84,11,11,0,0,1,1.5-2.56,6.21,6.21,0,0,1,2.3-1.86A5,5,0,0,1,111,140a5.78,5.78,0,0,0-1.44.06,5.23,5.23,0,0,0-1.35.45,5.92,5.92,0,0,0-2.08,1.9,10.78,10.78,0,0,0-1.29,2.53,14.82,14.82,0,0,0-.74,2.74l-.32,1.89-.37-1.9a11.35,11.35,0,0,0-1.74-4.3,6.16,6.16,0,0,0-1.59-1.59,4.74,4.74,0,0,0-2-.77,4.08,4.08,0,0,0-2.12.22,3.38,3.38,0,0,0-1.59,1.34,8.68,8.68,0,0,0-1.19,4.33l-.2,4.72L92,146.93a11.24,11.24,0,0,0-1.52-4,4.51,4.51,0,0,0-3.22-2.24A4.61,4.61,0,0,0,83.53,142a7.11,7.11,0,0,0-1.86,3.75l-.3,1.68-.31-1.65a10.7,10.7,0,0,0-.87-2.65,6.94,6.94,0,0,0-1.68-2.2,6.73,6.73,0,0,0-2.46-1.35A8.1,8.1,0,0,0,73.23,139.18Z"/><path class="cls-3" d="M108.72,123.71l-2,7.89-4.4-12.16S108.63,121.27,108.72,123.71Z"/><polygon class="cls-1" points="94.52 96.21 96.07 114.72 96.07 119.08 79.92 130.2 93.02 83.3 94.52 96.21"/><path class="cls-2" d="M84.09,126.51a85,85,0,0,0,7.63-22.13c2-11.57.72-18.78.72-18.78l.86-2.09,2.72,31Z"/><polygon class="cls-5" points="94.02 82.74 95.56 109.64 92.94 82.82 94.02 82.74"/><polygon class="cls-3" points="96.02 114.54 93.48 82.42 104.46 128.68 101.84 127.84 96.02 114.54"/><polygon class="cls-5" points="105.64 130.65 96.02 114.54 79.5 130.65 105.64 130.65"/><path class="cls-5" d="M93.5,80.18c2.27,8.23,4.62,16.54,6.87,25s4.33,16.9,6.32,25.23l.33,1.36H78.07l.39-1.39c2.3-8.34,4.69-16.81,7.26-25.22S90.94,88.4,93.5,80.18Zm0,3c-2.09,8.09-4.09,16.11-6.19,24S82.9,123,80.55,130.94l-1-1.38h26.14l-1.06,1.35c-2.06-8-4-15.83-5.83-23.72S95.24,91.29,93.45,83.21Z"/><path class="cls-6" d="M38.86,40.12a14.72,14.72,0,0,0-9.54,15.46,14.3,14.3,0,0,0,6.82,10.5c6.8,4.41,16.47,3.54,21.67-1.81C68.67,53.09,85.61,29.64,54.7,9.63,54.7,9.63,64.11,30.39,38.86,40.12Z"/><path class="cls-4" d="M56.74,12.34a9,9,0,0,0-1.3-.6S55.93,11.94,56.74,12.34Z"/><path class="cls-4" d="M71.25,31.29c-.89-11.16-10.89-17.14-14.51-18.95,3,1.67,10.07,7.29,7.49,22.65C61.84,49.17,46,51.75,36.59,52a3.4,3.4,0,0,1-3.08-1.71c-.78-1.42-1-3.72,1.61-6.92,0,0-5,4.67-5.39,8.43-.95,9.43,5.18,13.81,5.18,13.81,12.14,9,24-2.07,24-2.07L69.14,47.82S72.34,44.94,71.25,31.29Z"/><path class="cls-6" d="M101.67,60.74c0,4.63,1.21,10.07,6.41,13.24A13.39,13.39,0,0,0,126.55,69c7-12.11,14.15-34.84-9.25-49.28,0,0,9.07,18.85-9.62,30.25A12.68,12.68,0,0,0,101.67,60.74Z"/><path class="cls-4" d="M103,57.47s-.84,15.15,11.24,9.39c7.78-3.71,16-20,12.35-31.51-3-9.33-7.17-13.56-7.17-13.56s14.3,8.42,13.81,21.66S127.85,67,125.71,70.32s-12.18,11.8-20.07,1.74S103,57.47,103,57.47Z"/><path class="cls-5" d="M50.76,64.1c-6.48,0-14.41-7.15-14.41-15.49a16.17,16.17,0,0,1,2.52-8.82l.92.59a15,15,0,0,0-2.35,8.23c0,7.62,7.45,14.4,13.32,14.4,3.85,0,9.21-1.8,11.15-4.71l.91.61C60.42,62.49,54.33,64.1,50.76,64.1Z"/><path class="cls-5" d="M118.85,71.81c-6.76,0-12.27-6.51-12.27-14.52a16.18,16.18,0,0,1,2.53-8.82l.91.59a15.16,15.16,0,0,0-2.35,8.23c0,7.41,5,13.43,11.18,13.43a10.57,10.57,0,0,0,8.72-5l.9.61A11.64,11.64,0,0,1,118.85,71.81Z"/><path class="cls-5" d="M124.58,63.33c-6.76,0-12.27-6.51-12.27-14.52a17,17,0,0,1,.33-3.34l1.07.21a16.36,16.36,0,0,0-.31,3.13c0,7.41,5,13.43,11.18,13.43a9.51,9.51,0,0,0,5.13-1.5l.58.93A10.88,10.88,0,0,1,124.58,63.33Z"/><path class="cls-5" d="M128.53,52.08c-5.94,0-11-5-12.07-11.91l1.07-.17c1,6.37,5.6,11,11,11a9.63,9.63,0,0,0,4.31-1l.48,1A10.6,10.6,0,0,1,128.53,52.08Z"/><path class="cls-5" d="M127.39,40.83A11.54,11.54,0,0,1,118.22,36l.87-.66a10.47,10.47,0,0,0,8.3,4.44,9.58,9.58,0,0,0,5.09-1.48l.57.93A10.8,10.8,0,0,1,127.39,40.83Z"/><path class="cls-5" d="M122.6,31.83a5.41,5.41,0,0,1-3.55-1.43l.73-.8a3.83,3.83,0,0,0,4.41.73c1.42-.8,1.34-1.61,1.22-2.85,0-.31-.06-.64-.06-1l1.09,0a9.07,9.07,0,0,0,.06.91c.12,1.29.26,2.75-1.78,3.9A4.28,4.28,0,0,1,122.6,31.83Z"/><path class="cls-5" d="M57.49,57.14c-6.76,0-12.27-6.51-12.27-14.52,0-3.07.33-5.35,2-7.92l.92.59c-1.53,2.36-1.82,4.4-1.82,7.33,0,7.41,5,13.43,11.18,13.43a11.67,11.67,0,0,0,9.33-4.94l.91.6A12.62,12.62,0,0,1,57.49,57.14Z"/><path class="cls-5" d="M63.34,48.36c-6.77,0-12.27-6.51-12.27-14.51,0-.84,0-1.55.08-2.19l1.08.09c0,.61-.07,1.29-.07,2.1,0,7.4,5,13.42,11.18,13.42a11.69,11.69,0,0,0,6.88-2.37l.66.87A12.82,12.82,0,0,1,63.34,48.36Z"/><path class="cls-5" d="M65.41,37.56c-5.4,0-10.1-4.09-11.71-10.18l1-.28c1.48,5.61,5.76,9.37,10.66,9.37a11.72,11.72,0,0,0,6.75-2.27l.64.88A12.79,12.79,0,0,1,65.41,37.56Z"/><path class="cls-5" d="M64.59,28a10.59,10.59,0,0,1-9.33-5.08l.91-.6a9.43,9.43,0,0,0,8.42,4.59,11.3,11.3,0,0,0,5.35-1.4l.52,1A12.48,12.48,0,0,1,64.59,28Z"/><path class="cls-5" d="M59.6,21.2a4,4,0,0,1-3.34-1.53l.89-.63a3.59,3.59,0,0,0,6.12-2.18l1.09.11a4.22,4.22,0,0,1-4,4.18A4.48,4.48,0,0,1,59.6,21.2Z"/><path class="cls-5" d="M46,70a19.17,19.17,0,0,1-10.4-3,15.33,15.33,0,0,1-7.31-11.27A15.76,15.76,0,0,1,38.47,39.11c7.9-3,13.09-7.49,15.44-13.2,3.26-7.95-.17-15.75-.2-15.83L52.19,6.71l3.1,2c10.9,7,16.94,15.21,18,24.25C74.38,42.91,69.31,54,58.59,65A17.65,17.65,0,0,1,46,70ZM56.74,12.34a23.18,23.18,0,0,1-.81,14.37C53.35,33,47.74,37.86,39.25,41.14h0a13.58,13.58,0,0,0-8.85,14.3,13.28,13.28,0,0,0,6.33,9.73c6.33,4.09,15.43,3.35,20.3-1.66,7.14-7.35,15.39-18.58,14.06-30.29C70.23,25.59,65.4,18.58,56.74,12.34Z"/><path class="cls-5" d="M114.8,77a13.94,13.94,0,0,1-7.29-2.06c-4.59-2.8-7-7.7-6.93-14.18a13.85,13.85,0,0,1,6.54-11.65c7.4-4.52,11.2-10.74,11.29-18.48a26,26,0,0,0-2.09-10.37l-1.62-3.35,3.17,1.95c12.25,7.56,17.89,18.54,16.29,31.75a51.35,51.35,0,0,1-6.67,19,14.89,14.89,0,0,1-9.13,6.93A14.54,14.54,0,0,1,114.8,77Zm4.62-54.49c1.73,6.09,3.45,19.54-11.17,28.46a11.64,11.64,0,0,0-5.49,9.81c-.05,5.75,1.93,9.89,5.89,12.3a11.87,11.87,0,0,0,9.17,1.36,12.69,12.69,0,0,0,7.78-5.91A49.25,49.25,0,0,0,132,50.31h0C133.39,38.84,129.15,29.49,119.42,22.48Z"/><path class="cls-5" d="M60.81,125.25a25,25,0,0,0,6-1.15,23,23,0,0,0,5.37-2.73,23.56,23.56,0,0,0,4.37-4.09,22.5,22.5,0,0,0,3-5.13A21.82,21.82,0,0,0,81,106.37a22.3,22.3,0,0,0-.32-5.94,21.76,21.76,0,0,0-2-5.57,22.22,22.22,0,0,0-3.56-4.73,23,23,0,0,0-4.75-3.52,21.66,21.66,0,0,0-5.57-2,22.93,22.93,0,0,0-5.91-.31A20.21,20.21,0,0,0,48,88.74a23.28,23.28,0,0,0-4,4.37l-.81,1.25-.2.32-.18.33-.34.67-.35.66c-.11.23-.19.46-.29.69-.19.47-.39.93-.56,1.4a26.38,26.38,0,0,0-1.27,5.95,21.26,21.26,0,0,1,0-3.09l.07-.78,0-.39.08-.38.31-1.53A21.41,21.41,0,0,1,43,92.47a22.65,22.65,0,0,1,4.18-4.72,23.29,23.29,0,0,1,5.41-3.27,23,23,0,0,1,6.13-1.57,23.49,23.49,0,0,1,6.32.3,21.41,21.41,0,0,1,11,5.91,23.66,23.66,0,0,1,3.74,5.1,23.11,23.11,0,0,1,2.1,6,23.82,23.82,0,0,1,.27,6.31,23,23,0,0,1-1.56,6.1A23.25,23.25,0,0,1,77.35,118a22.6,22.6,0,0,1-4.7,4.14,22.29,22.29,0,0,1-5.7,2.51l-1.52.33-.38.08-.39,0-.77.08A21.14,21.14,0,0,1,60.81,125.25Z"/><circle class="cls-5" cx="62.44" cy="102.75" r="18.76"/><ellipse class="cls-7" cx="66.61" cy="101.03" rx="10.4" ry="10.79"/><path class="cls-5" d="M128.51,108.35a16,16,0,0,0-.89-3.91,13.4,13.4,0,0,0-1.91-3.43,12.54,12.54,0,0,0-6.19-4.43,11.77,11.77,0,0,0-7.51.25,12.22,12.22,0,0,0-5.86,4.74,13.18,13.18,0,0,0-1.83,9.27,15.16,15.16,0,0,0,.5,1.87,12.62,12.62,0,0,0,1.8,3.45,12.41,12.41,0,0,0,6.32,4.45,12.22,12.22,0,0,0,7.87-.29,11.82,11.82,0,0,1-8,.83,12.16,12.16,0,0,1-3.82-1.62,13.76,13.76,0,0,1-3.09-2.81,13.45,13.45,0,0,1-2.07-3.65,15.63,15.63,0,0,1-.6-2A14.72,14.72,0,0,1,103,109a14,14,0,0,1,2-8.11,13.1,13.1,0,0,1,6.49-5.34,12.65,12.65,0,0,1,16.66,8.76A13.38,13.38,0,0,1,128.51,108.35Z"/><ellipse class="cls-5" cx="114.92" cy="107.26" rx="11.18" ry="11.61"/><ellipse class="cls-7" cx="113.19" cy="104.7" rx="8.72" ry="9.05"/><path class="cls-8" d="M111.05,106.08a30.27,30.27,0,0,0,3.56,2.27,29.16,29.16,0,0,0-3.1-2.87,29.46,29.46,0,0,0,2.27-3.56,29,29,0,0,0-2.86,3.1,22.67,22.67,0,0,0-3.56-2.27,21.73,21.73,0,0,0,3.09,2.87,21.55,21.55,0,0,0-2.26,3.56A22.63,22.63,0,0,0,111.05,106.08Z"/><path class="cls-1" d="M85.31,67.18S64.62,52.47,28.14,55.74c0,0-7.44-.36-10.52,11.44s.9,17.6,2.9,18.33S59.27,87.29,77.19,96.2c0,0,5.58.74,9.57-10.51S89.67,70.08,85.31,67.18Z"/><path class="cls-2" d="M20.52,62S18.44,68.41,19,71.26s.9-1.91,3.63-3.63,7.94-9.53,7.53-10-4-1-4-1,8.17-1,8.61-.94,0,.71,0,.71S28.57,62.21,28,67.49a93.28,93.28,0,0,0-.62,9.71s-4.27-.81-6.81,2.32-2.31,2.76-2.31,2.76S14.21,69.08,20.52,62Z"/><path class="cls-5" d="M28.1,77.94a9.41,9.41,0,0,0-2.7.78,8,8,0,0,0-2.35,1.59,7.84,7.84,0,0,0-.92,1.08,8.12,8.12,0,0,0-.67,1.27A7.46,7.46,0,0,0,21,84.05c-.11.48-.13,1-.2,1.46h-.62c0-.52,0-1,.11-1.57a7.83,7.83,0,0,1,.36-1.56,8,8,0,0,1,.65-1.47,8.16,8.16,0,0,1,1-1.31,9.1,9.1,0,0,1,2.54-2,11.57,11.57,0,0,1,1.48-.67,9.61,9.61,0,0,1,1.6-.45Z"/><path class="cls-2" d="M37,55.28s-3,.29-6.17,6.14A23,23,0,0,0,28,72.74s-.59,4.87,2,5,4.88-3.36,15.76-4.26S69,76.79,69,76.79s-1.59-4.37-7.75-5.13h0c2-2.28-1.6-6.06-4.65-6.35a56.26,56.26,0,0,0-6.08-.12c-13.37.68-4-9.27-4-9.27S38.64,54.57,37,55.28Z"/><path class="cls-1" d="M100.55,75.09s14.11-6.32,28.66-2.72a3.34,3.34,0,0,1,1.1.51c2.18,1.51,9.65,7.83,6.79,21.71a3.49,3.49,0,0,1-3.38,2.89,93.16,93.16,0,0,0-27.09,4.06s-4.57,2.29-7.54-13.65c0-.1,0-.2,0-.3C98.9,86.23,97.88,76.1,100.55,75.09Z"/><path class="cls-2" d="M105.79,86.56c0-.24-.23-7.5,5.22-7.86s10.51-2,12.51,1.77-.68,9-.68,9-10.43,1.07-13,3.12a16.58,16.58,0,0,1,5.52-2.37s-5.45,1.47-7.31,3c0,0-2.41-2.37-.87-2.42,0,0,1.18-.26,0-1.58A4.38,4.38,0,0,1,105.79,86.56Z"/><path class="cls-3" d="M104.73,74.48s.33,8.54.55,9.77S108,93.18,108,93.18s-4,3.2-2.86,7.6c0,0-3.78-2.26-5-8.1s-1.45-12.4-.84-14.76.53-2.37,1.81-2.56A33.75,33.75,0,0,0,104.73,74.48Z"/><path class="cls-3" d="M106.36,88.37s-2.46-10,.77-11.55,17.22-3.78,20.89,0,2.35,12,2.35,12S114.85,90.22,109.68,93A11.19,11.19,0,0,0,107,94.76c-1.27,1.14-2.46,4.44-1.5,5.9s8.67-1.16,8.67-1.16l21.49-2.61,2.29-10.23a49,49,0,0,0-3.23-8.3c-1.75-3.14-3.61-5.21-5.65-5.58a39.44,39.44,0,0,0-14.56-.72c-7,1.09-9.74,2.42-9.74,2.42S105,87,106.36,88.37Z"/><path class="cls-3" d="M50.55,55.92c-.67,0,18.53,2.84,22.68,11.62s-3.38,11.84-3.38,11.84S49.2,74.86,36.13,77.2L28,77.66S24.58,78,22.7,79.9a8,8,0,0,0-1.95,4.92l33.48,4.09,23.48,6.47s3.68.52,8.17-9.31S88,69.15,88,69.15,70.35,57,50.55,55.92Z"/><rect class="cls-5" x="65.1" y="51.86" width="18.12" height="1.09" transform="translate(14.26 120.65) rotate(-83.97)"/><path class="cls-5" d="M104.93,73.61a83.38,83.38,0,0,0,1,9.86A40.49,40.49,0,0,0,107,88.26a13.11,13.11,0,0,0,1.93,4.27h0l-.92-.25a59.46,59.46,0,0,1,7.29-2.14,64.31,64.31,0,0,1,7.45-1.24,48.94,48.94,0,0,1,7.56-.21,37.84,37.84,0,0,1,7.47,1.17l-.19.7a37.64,37.64,0,0,0-7.32-1,49.36,49.36,0,0,0-7.39.42,62.22,62.22,0,0,0-7.27,1.42,59.08,59.08,0,0,0-7,2.26L108,94l-.32-.5h0a14.67,14.67,0,0,1-1.93-4.86,42.43,42.43,0,0,1-.84-5,81.58,81.58,0,0,1-.5-10Z"/><path class="cls-5" d="M108.65,93.68a5.88,5.88,0,0,0-.87.55A6.29,6.29,0,0,0,107,95a5.85,5.85,0,0,0-1.09,1.93,7.17,7.17,0,0,0-.32,2.27,11.54,11.54,0,0,0,.1,1.17c.07.39.16.78.24,1.17l-.56.18c-.12-.4-.26-.8-.37-1.21a12.74,12.74,0,0,1-.23-1.26,8.15,8.15,0,0,1,.11-2.6A7,7,0,0,1,106,94.2a7.33,7.33,0,0,1,.88-1A6.53,6.53,0,0,1,108,92.3Z"/><path class="cls-5" d="M100.08,74a50,50,0,0,1,10.7-2.89,49.08,49.08,0,0,1,11-.56,42.2,42.2,0,0,1,5.49.67l1.36.29.68.14a3.44,3.44,0,0,1,.78.27,3.68,3.68,0,0,1,.7.41c.2.14.4.28.58.43.38.29.74.6,1.09.92A19.34,19.34,0,0,1,138,83.36a27.78,27.78,0,0,1,.08,11.16,5.76,5.76,0,0,1-.17.77,4.84,4.84,0,0,1-.32.79,4.77,4.77,0,0,1-1.06,1.36,4.45,4.45,0,0,1-1.53.87,4.36,4.36,0,0,1-.87.19l-.45,0h-.34c-1.77,0-3.56.09-5.34.24a101.65,101.65,0,0,0-21,4.08l.22-.09-.19.08-.11,0-.23.06-.42.07a3.36,3.36,0,0,1-.78,0l-.37-.07-.34-.11-.33-.13-.29-.15a5.32,5.32,0,0,1-1-.73c-.3-.27-.54-.55-.8-.83a16.22,16.22,0,0,1-2.07-3.6,41.14,41.14,0,0,1-2.17-7.47l-.19-.95-.09-.47c0-.16-.07-.28-.1-.52s0-.36-.06-.53l0-.48-.07-1c-.08-1.28-.13-2.57-.12-3.86a26.67,26.67,0,0,1,.27-4,10.6,10.6,0,0,1,.53-2.08A4.67,4.67,0,0,1,98.83,75a2.82,2.82,0,0,1,.24-.29,2.42,2.42,0,0,1,.28-.27A2.73,2.73,0,0,1,100.08,74Zm.93,2.27c-.05,0-.08,0-.18.18a2.81,2.81,0,0,0-.27.55,8.65,8.65,0,0,0-.35,1.57A23.27,23.27,0,0,0,100,82.1c0,1.22.08,2.45.19,3.67l.08.92,0,.45a3,3,0,0,0,.05.41l.37,1.76a40.41,40.41,0,0,0,2,7,13.58,13.58,0,0,0,1.64,2.94c.17.17.34.38.51.53a3,3,0,0,0,.5.36l.12.08.11,0,.11,0h.09c.07,0,.11,0,.16,0h0l-.08,0,.23-.09a99.07,99.07,0,0,1,21.63-3.73c1.83-.09,3.66-.13,5.51-.09H134a1.78,1.78,0,0,0,.45-.08,2.56,2.56,0,0,0,.83-.44,2.84,2.84,0,0,0,.61-.76,2.4,2.4,0,0,0,.21-.46,3.75,3.75,0,0,0,.13-.55,25.16,25.16,0,0,0,.17-10.4,17.79,17.79,0,0,0-5-8.95c-.32-.29-.64-.58-1-.84-.17-.14-.34-.26-.51-.39a3.34,3.34,0,0,0-.46-.28,2.11,2.11,0,0,0-.5-.17l-.65-.13-1.3-.27a37.53,37.53,0,0,0-5.29-.57,45.82,45.82,0,0,0-10.58,1A52.21,52.21,0,0,0,101,76.23Z"/><path class="cls-5" d="M37.17,55.75a12.21,12.21,0,0,0-2.54,1.61,12.43,12.43,0,0,0-1.13,1l-.54.54-.49.59a17.24,17.24,0,0,0-2.91,5.34l-.42,1.48c-.14.49-.2,1-.3,1.5a24.06,24.06,0,0,0-.33,3.06,4.92,4.92,0,0,0,0,.77l0,.77,0,1.55.35,3.08L28,76.31h0a138.78,138.78,0,0,1,14.73,1.13Q50,78.38,57.23,80a124.42,124.42,0,0,1,14.17,4l3.46,1.25c1.14.46,2.27,1,3.4,1.42l1.7.71,1.66.8,3.32,1.6-.36.69L81.27,89l-1.66-.77-1.7-.68c-1.13-.44-2.25-.9-3.39-1.34l-3.46-1.18A124.14,124.14,0,0,0,57,81.27Q49.82,79.77,42.55,79A136.5,136.5,0,0,0,28,78.09h-.82l-.06-.76-.27-3.25,0-1.63v-.82a5.49,5.49,0,0,1,0-.81,25,25,0,0,1,.45-3.24c.12-.54.21-1.08.37-1.6l.5-1.57a18.58,18.58,0,0,1,3.31-5.65,14.69,14.69,0,0,1,5.25-3.95Z"/><path class="cls-5" d="M84.42,68.47a49.37,49.37,0,0,0-6.22-3.53l-1.64-.78c-.54-.26-1.11-.48-1.67-.73l-1.67-.7-1.71-.65a96.37,96.37,0,0,0-14-4l-3.61-.63c-.6-.09-1.2-.22-1.81-.29l-1.82-.22c-1.22-.13-2.43-.3-3.65-.41l-3.67-.23-1.83-.1H35.56c-.61,0-1.22,0-1.83.07l-1.84.11-3.67.22H28.1a6.21,6.21,0,0,0-1.22.17,4.71,4.71,0,0,0-.64.19,3.61,3.61,0,0,0-.62.24,8.44,8.44,0,0,0-2.27,1.43A13.12,13.12,0,0,0,20.07,63l-.31.62-.26.66c-.17.45-.36.88-.5,1.33-.27.91-.57,1.81-.76,2.76a29.57,29.57,0,0,0-.8,5.66,19.69,19.69,0,0,0,.49,5.59,12.44,12.44,0,0,0,.91,2.57,6.63,6.63,0,0,0,1.5,2,1.33,1.33,0,0,0,.88.38,4.25,4.25,0,0,0,.64.08l.71.07c1,.09,1.95.17,2.92.24l5.89.45q5.88.47,11.77,1.12c2,.26,3.92.46,5.87.76l2.94.42,2.93.49c7.81,1.28,15.6,3,23.1,6.34l-.56-.17h.14c.11,0,.22,0,.34-.05a3.88,3.88,0,0,0,.73-.24,6.6,6.6,0,0,0,1.46-.88,11.51,11.51,0,0,0,2.49-2.88l.28-.42.25-.44.5-.89c.29-.62.6-1.23.87-1.87s.53-1.29.76-2,.49-1.36.7-2,.44-1.36.61-2l.29-1,.23-1a18.92,18.92,0,0,0,.51-4,7.62,7.62,0,0,0-.71-3.53A7.18,7.18,0,0,0,84.42,68.47Zm1.79-2.59a10.3,10.3,0,0,1,3.52,3.73,10.78,10.78,0,0,1,1.15,5,22.68,22.68,0,0,1-.52,4.72l-.24,1.13-.29,1.11c-.18.74-.41,1.46-.62,2.19a34.4,34.4,0,0,1-3.63,8.51A15.11,15.11,0,0,1,82.33,96,10.35,10.35,0,0,1,80,97.42a8.44,8.44,0,0,1-1.37.44c-.23.06-.5.08-.75.12a4.22,4.22,0,0,1-1,0h0l-.29,0-.27-.13a63.81,63.81,0,0,0-10.67-4.15c-.92-.3-1.87-.51-2.8-.77s-1.87-.52-2.82-.73c-1.9-.42-3.78-.89-5.7-1.24l-2.87-.55-2.89-.48c-1.93-.34-3.87-.58-5.8-.88Q37,88.23,31.18,87.63l-5.86-.57-2.95-.29-.75-.08a8,8,0,0,1-.81-.12,2.88,2.88,0,0,1-.94-.28,4.25,4.25,0,0,1-.81-.55,8.55,8.55,0,0,1-1.95-2.69,14.19,14.19,0,0,1-1-3A21.39,21.39,0,0,1,15.62,74a33.2,33.2,0,0,1,.9-6c.2-1,.53-2,.82-2.92.15-.48.37-1,.54-1.42l.29-.71.35-.69a14.84,14.84,0,0,1,3.74-4.94A10.29,10.29,0,0,1,25,55.62a5.22,5.22,0,0,1,.75-.28,5.69,5.69,0,0,1,.78-.22c.27-.07.54-.11.81-.16a6,6,0,0,1,.88-.05h-.11l3.72-.23,1.86-.12c.62,0,1.25-.08,1.87-.07l3.73-.05,1.87,0L43,54.5l3.74.14c1.24.07,2.48.21,3.72.31l1.87.16c.62.06,1.23.17,1.85.25l3.71.53a96.94,96.94,0,0,1,14.57,3.62l1.78.61,1.75.69c.59.23,1.18.44,1.76.7l1.73.76A52.45,52.45,0,0,1,86.21,65.88Z"/></svg>