<svg id="Layer_1" data-name="Layer 1" xmlns="http://www.w3.org/2000/svg" viewBox="0 0 161 204"><defs><style>.cls-1{fill:#0a5083;}.cls-2{fill:#00a8c3;}.cls-3{fill:#243450;}.cls-4{fill:#ab8941;}.cls-5{fill:#1f120d;}.cls-6{fill:#f1b942;}.cls-7{fill:#271a13;}.cls-8{fill:#fbd646;}</style></defs><title>MASKS</title><path class="cls-1" d="M16.32,123.71s2.05,10.15,2.6,14.23,1.13,19.61,2.31,21.86,2.85,5,8.33,6,14.88,2.8,23.52,6.78,16,7.72,16,7.72a12.25,12.25,0,0,0,8.14,9.81c7.49,2.71,14,5.5,19.07,1.25s9.1-11,9.1-11l3.45-4.25s8.52-7.73,14-11.42,6.46-1,7.48-5.14-.05-16.39.3-20.2,2.49-13.46,2.49-13.46Z"/><path class="cls-2" d="M19.13,127.21s2.94,9.67,4.23,16.26a31.6,31.6,0,0,1,.58,4.1,4.9,4.9,0,0,0,.84-2.88,56.87,56.87,0,0,1,1.36,10.93c.23,6.43,7.76,8,11.53,9.27a24.35,24.35,0,0,0,6.49,1.29L42.93,164a22.89,22.89,0,0,1,5.72,5.17,8.73,8.73,0,0,0,4.43,3.45s-17.07-5-19.71-5.47-12.45-2.78-12.64-9.22-1.81-20-1.81-20l-2.09-11.33Z"/><path class="cls-2" d="M70.88,164s-5,32.85,30.65,23.18c0,0-11.65,13.35-26.23,1.23C75.3,188.41,61.65,176.14,70.88,164Z"/><path class="cls-3" d="M130.82,128s-1.6,2.73-2.64,9.67-1.17,11.91-1.31,13.07-5.12,6.32-7.77,5.92-7.41-3.69-7.41-3.69-6.94,14.82-6.87,15,2,7.16,2,7.16l.28,3.74S116,169.4,118,168.42s11.17-5.74,11.79-6.14,1.59-3.27,1.56-4.43-.45-20.39-.07-22.68,1.33-8.08,3.32-8.66Z"/><path class="cls-3" d="M71.56,159.29s-2.83,23.87,16.06,25.1S107,171.84,107,171.84l.79-10.65-3-13-25.18-2.91-8.23,6.26Z"/><path class="cls-3" d="M21.38,127.21s6.42,15.51,7.15,22.4.7,10.3,13.22,13.57c0,0-4.26-3.9-4.35-4.53,0,0,12.93,7.66,18.49,9.77a26.83,26.83,0,0,1-5.45,0s6.91,6.47,11.68,8.47A42.64,42.64,0,0,1,69,180.34S67,168.49,70.88,164s.5-14.52.5-14.52Z"/><path class="cls-4" d="M80.36,161.3s5.73,4.27,9.72,3.41,2.4-4.27,2.4-4.27.63,5.32,5.69,4.33,5.17-3.88,5.17-3.88l-.22-4.09s-1.26,2.51-5.89,1.6-4.49-1.6-4.49-1.6a8.4,8.4,0,0,1-8.61-.17l-2-1.47A10.14,10.14,0,0,0,80.36,161.3Z"/><path class="cls-5" d="M17.42,125.41c1.57,7.18,2.9,14.4,3.82,21.73.22,1.83.43,3.66.62,5.51.12.92.18,1.84.27,2.77l.13,1.32a12.33,12.33,0,0,0,.18,1.24A8.1,8.1,0,0,0,24.3,162,7.46,7.46,0,0,0,26,163.35a14.11,14.11,0,0,0,2.23,1,51.62,51.62,0,0,0,5.12,1.33c1.78.38,3.59.77,5.39,1.22a65.21,65.21,0,0,1,10.65,3.46c1.72.77,3.33,1.59,5,2.38l5,2.35c1.65.78,3.31,1.57,5,2.32s3.36,1.53,5,2.21l-.59,1.53c-1.75-.73-3.39-1.47-5.07-2.22l-5-2.24-5-2.24c-1.67-.73-3.36-1.52-5-2.2a48.51,48.51,0,0,0-10.37-2.83c-1.78-.29-3.58-.52-5.41-.79a40,40,0,0,1-5.58-1.12,14.49,14.49,0,0,1-2.85-1.14,9.77,9.77,0,0,1-2.6-2,8.86,8.86,0,0,1-1.72-2.84,12.18,12.18,0,0,1-.69-3.05c0-.51-.07-1-.09-1.5,0-.25,0-.49,0-.74v-.68c0-.9.06-1.81,0-2.72,0-1.81-.08-3.63-.22-5.44a182.3,182.3,0,0,0-2.9-21.68Z"/><path class="cls-5" d="M110.87,147s-.67,12.59,4.82,11.12c4.08-1.1,7.68-4.72,9.25-6.51a2.82,2.82,0,0,0,.72-2c-.06-1.9.3-7.14,3.71-20.5l-17.85,3.43Z"/><path class="cls-5" d="M68.38,172.85a24.81,24.81,0,0,0,1.74,7.76,18.42,18.42,0,0,0,4.29,6.29,19.9,19.9,0,0,0,13.74,5.38h.95l1-.05c.31,0,.63-.07.94-.1l.47-.05.42-.08a12.19,12.19,0,0,0,3.34-1.2,21.74,21.74,0,0,0,5.83-4.64,20.53,20.53,0,0,0,5.49-14.23,15.17,15.17,0,0,1,.43,8.33,20.51,20.51,0,0,1-3.61,7.78,19.83,19.83,0,0,1-6.59,5.73,14.87,14.87,0,0,1-4.31,1.49l-.58.09a5.16,5.16,0,0,1-.54,0c-.36,0-.72.07-1.08.09l-1.09,0H88.09a23.18,23.18,0,0,1-8.48-1.8,19.75,19.75,0,0,1-3.81-2.13,19.05,19.05,0,0,1-3.25-2.9,18.21,18.21,0,0,1-4.08-7.52A17.07,17.07,0,0,1,68.38,172.85Z"/><path class="cls-5" d="M133.34,127.35c-.54,2.62-1,5.27-1.24,7.92a78.7,78.7,0,0,0-.43,8c0,2.66.13,5.33.24,8,.05,1.34.11,2.69.13,4.07a21.75,21.75,0,0,1-.26,4.27,7.12,7.12,0,0,1-.32,1.13,5.42,5.42,0,0,1-.22.56l-.3.55a6,6,0,0,1-1.73,1.77,13.25,13.25,0,0,1-2,1c-.64.29-1.26.55-1.87.8-1.23.51-2.43,1.06-3.56,1.66a27.56,27.56,0,0,0-3.25,2.14,111.51,111.51,0,0,0-11.8,10.83l-.92-.81c1.77-2.08,3.58-4.09,5.48-6a73.94,73.94,0,0,1,6-5.56,29.63,29.63,0,0,1,3.43-2.42,34.78,34.78,0,0,1,3.72-1.85,26.21,26.21,0,0,0,3.47-1.64,3.74,3.74,0,0,0,1.09-1.08l.19-.34c.06-.11.1-.25.15-.37a5.07,5.07,0,0,0,.23-.81,17.33,17.33,0,0,0,.2-3.8c0-1.32-.1-2.66-.15-4-.12-2.7-.13-5.43,0-8.16a69.62,69.62,0,0,1,2.58-16.12Z"/><path class="cls-5" d="M85.59,164.17a13.32,13.32,0,0,0,2.23.32,5.94,5.94,0,0,0,2.12-.19,2.87,2.87,0,0,0,1.57-1.09,4.21,4.21,0,0,0,.69-1.86l.44-2.79.62,2.76A5.39,5.39,0,0,0,94,163a3.62,3.62,0,0,0,1.39,1.22,4.39,4.39,0,0,0,1.89.4c.34,0,.67,0,1-.06l1-.19c-.31.16-.63.32-1,.47s-.69.23-1.05.3a4.59,4.59,0,0,1-2.26-.15,4.11,4.11,0,0,1-1.88-1.38,5.61,5.61,0,0,1-.61-1,6,6,0,0,1-.4-1.1l1.07,0a5.06,5.06,0,0,1-.93,2.35,3.59,3.59,0,0,1-2.2,1.29,5.84,5.84,0,0,1-2.4-.1A8.09,8.09,0,0,1,85.59,164.17Z"/><path class="cls-1" d="M72,152.94s-1.07,5.28-9.38,5.71-13.68-1-17.69-1.55-11.18-4.6-11.18-4.6Z"/><path class="cls-5" d="M23.94,127.82s4.49,6.83,7.29,21.58a4.21,4.21,0,0,0,2.52,3.1c7.32,3.06,40.63,12.8,37.43-4.93,0,0-.91-2.89.37-8.82s-.08-4.14-5.83-4.7S30.76,131,23.94,127.82Z"/><path class="cls-1" d="M17.11,85.14S6.55,108.42,8,121.17c0,0,23.31,13.8,62.37,13.39a1.5,1.5,0,0,1,1.48,1.87C70.63,141.5,70,154.88,79,169.53c0,0,.47-10.9,2.62-14.42.2-.34.72-.27,1,0,1.43,1.39,5.74,4.89,10.06,1.34,0,0,6.31,4.26,10.22-.15a.34.34,0,0,1,.59.21L105,169.79s8.64-8.21,6-35.79a2,2,0,0,1,1.63-2.12c5.24-.86,20.32-3.55,25.24-6.68,0,0-.05-11-4.88-29l-13-35.6S91,30.88,37.26,49.39C37.26,49.39,25.34,60.43,17.11,85.14Z"/><path class="cls-2" d="M83.77,44.58l-9,12s5,2.41,8.07,1.95,9.39,4.38,10.89,5c0,0-4.84-3.51-4.36-7.14s2.77-4.78,2.77-4.78S90.78,56,92.1,58.46s2.09,3,2.09,3-1.12-4.61.74-7.24a38.91,38.91,0,0,1,5-5.41S86.35,44.13,83.77,44.58Z"/><path class="cls-2" d="M124.33,120.35a7,7,0,0,0,3.85-4.74,11.54,11.54,0,0,1-.77,7.38l-6.75,2.23a19.39,19.39,0,0,1-4.09.39s9-1.82,10.53-6.44A5.58,5.58,0,0,1,124.33,120.35Z"/><polygon class="cls-2" points="105.6 136.21 106.06 141.7 103.39 146.6 104.14 137.16 105.6 136.21"/><path class="cls-2" d="M96.64,135.17a2.19,2.19,0,0,1,.56,2.26A26.38,26.38,0,0,1,95.36,141l-3.53,4.77.42-7.69A4.37,4.37,0,0,1,96.64,135.17Z"/><path class="cls-2" d="M85,135.17s3-.48,1.51,1.88a43,43,0,0,1-3,4.26L81,144.69l.41-6.55S82.93,135.43,85,135.17Z"/><path class="cls-2" d="M71.87,136.43s2.86-2.89,4.23-2.88,1.05,2.73.69,3.54a13.73,13.73,0,0,1-1.49,2.23s.43-1.78-.82-1.61a9.18,9.18,0,0,0-2.26.63Z"/><path class="cls-2" d="M33.37,120.08s5.65,9.29,27.12,10.57c0,0-15-2.41-17.13-6Z"/><path class="cls-2" d="M21.81,96.21s5.71-1.36,8.82-.83c0,0-6.53,15.92,7.63,24.7a5,5,0,0,1,0-3.81s4.25,7.36,5.9,8.78c0,0-11.36-4.93-15.8-7.62a85.35,85.35,0,0,1-9.3-6.81Z"/><path class="cls-2" d="M17.11,86.87a15.61,15.61,0,0,1,.73,7.95c-.86,3.88,1.29,12.44,1.29,12.44v4.11s-8.4,6.18-10.59,8.1c0,0,1.74-15.77,2.81-19S17.11,86.87,17.11,86.87Z"/><path class="cls-3" d="M17.11,85.14s1.41,3.06,4.41,3.09.68,6.59.68,6.59,9.21-3.94,14.37-1.15l3-6.5S22.57,86.81,17.11,85.14Z"/><path class="cls-6" d="M72.22,139.36a7,7,0,0,1,4.43.39,9.15,9.15,0,0,1,4.3,4.94s2.36-5.55,6.81-4.47,4.63,7.58,4.63,7.58-.93-7.67,5.28-7.12c0,0,5,1.06,5.72,5.92,0,0,2.08-7.6,7.46-6.65,0,0,2.41,18.6-5,27.77l-.71-.95L103.57,156a15.24,15.24,0,0,1-3.79,1.84,20.27,20.27,0,0,1-4.22-.19l-3.24-1.18a5.89,5.89,0,0,1-6,.71A19,19,0,0,1,82,154.56a9.75,9.75,0,0,0-2.56,5.61l-.91,7.91a60.28,60.28,0,0,1-4.51-10A77.2,77.2,0,0,1,72,149.3S71.45,139.79,72.22,139.36Z"/><path class="cls-4" d="M72.42,148.26s3.54,11.19,4.37,11.43,2.61-10.36,2.44-13.48a36.82,36.82,0,0,0-.62-5.2s2.52,3,2.53,4.1c0,0,1.27-3.22,2.34-3.8s1.57-.9,1.57-.9a8.71,8.71,0,0,0-3,6.31c0,3.95.77,7.47,1.84,7.9s4.25,1.56,5.31.54.48-10.12,0-11.53a26,26,0,0,1-.75-2.73s3.26,1.74,3.38,4.84,1-2,1-2,1.79-2.55,2.56-2.77a5.75,5.75,0,0,1,2.92-.1s-2.51-.39-3.23,1.67-1.53,6-1.26,7.51-.75,4.51,1.36,5.11,4-.17,4.72-3.77a49.21,49.21,0,0,0,.32-9.71s3.22,2.67,3.2,4.92c0,0,1.77-5,3.52-5.65a19.31,19.31,0,0,0-1.86,6.26c-.14,2.79.29,8.1.77,9.21s2.08,0,2.22-1.26.91-9.64.73-11.8a14.2,14.2,0,0,0-.55-3.17s2-.69,2.77-.14l-.14,8.16-.56,6.6s-.9,5.64-1,5.7-3.81,7.91-3.81,7.91l-2-11.7A15.69,15.69,0,0,1,98.83,158c-1.78,0-6.17-1.58-6.17-1.58s-3.41,1.94-6.1.83-5-2.17-5-2.17l-1.94,7.2-1.13,5.34-2.66-3.9-4.06-12.59Z"/><path class="cls-3" d="M107.1,134.13l.8,6.19s2.29-.8,3.09-.27l-.33-7.36A6.68,6.68,0,0,0,107.1,134.13Z"/><path class="cls-3" d="M104.41,138.86l-1,7.74s-1.66-5.38-4.74-5.94c0,0,1-5.25.45-6.38S104,136.44,104.41,138.86Z"/><path class="cls-3" d="M92.25,138.05v7.53s-1.61-5-5.31-5.49c0,0,3.28-4.15,1.37-4.92C88.31,135.17,91.72,135.1,92.25,138.05Z"/><path class="cls-3" d="M81.36,138.14,81,144.69s-1.47-4.45-4.78-5.15c0,0,2.07-2,1.87-4.08s-1.32-3.09-2.41-2.61.84-.86.84-.86,3.71.08,4.15.88S81.36,138.14,81.36,138.14Z"/><path class="cls-3" d="M108.39,123.71s-.51,4.33,10.71,1.92l-7.88,6.82a15.61,15.61,0,0,1-3.54,2c-1.27.31-3.27,4.44-3.27,4.44s-6-8-12.16-.81c0,0-5.49-7.19-10.89.09,0,0-1.29-5.18-4.11-5.45-.7-.07-.86-1.31,1.46-1.4,7-.27,25.43.31,25.43.31Z"/><path class="cls-3" d="M76.68,125.92s-8,8.34-27.49,4.28-18.83-11.34-18.83-11.34l-10.62-7-3.42.74L8,119.94l5.55,4s24.56,8.12,36,9.49,19.18.4,20.87,1.16a6.5,6.5,0,0,1,2,1.17s1.43-3.3,4.83-3l1-1.31Z"/><path class="cls-3" d="M36.57,87.09s-7.19,13.11,0,25.46c0,0-.67-3.81,1.19-6,0,0,3.08,15.87,16.6,18.64,0,0-1.23,1.37-6.39.33s14.09,9.05,28.71.39l1.1,5.68H106.4l-3-11.34s7.92,9.86,21,1a7.41,7.41,0,0,1-2.81-.54s6.36-5.09,6.59-10.49a35.12,35.12,0,0,1,.78,3.48s1.06,8.46-1.14,9.23S114,127.21,114,127.21s-3.3,2.53-3.38,5.48a6.48,6.48,0,0,1,3.94-1.54c2.22,0,21.25-4.78,22.29-5.36s1.87-2.8,1.87-2.8l-6.45-28.68-27-42.77-3.42-2.23s-7.63,8.07-4.73,15c2.1,5-5,.27-5,.27s-7-3.88-11.92-4.52-7-2.29-7-2.29L83.77,44.58l-12.44-.82Z"/><path class="cls-5" d="M18,85.49l-.47,1.11-.44,1.08c-.29.72-.58,1.44-.86,2.16-.55,1.45-1.1,2.9-1.61,4.37-1,2.93-2,5.88-2.74,8.87-.41,1.49-.73,3-1.08,4.5s-.6,3-.79,4.51l-.15,1.14c0,.37-.06.75-.1,1.12l-.08,1.13a8.47,8.47,0,0,0,0,1.12c0,.74,0,1.48,0,2.21L9.87,121l-.9-1.4H9c.81.48,1.75,1,2.66,1.44l1.39.7,1.42.65c1.89.87,3.82,1.67,5.77,2.42,1,.39,1.95.73,2.94,1.08s2,.71,3,1l3,.94,3,.83,1.52.42c.5.13,1,.24,1.53.36l3.06.72c2.06.45,4.12.82,6.19,1.22s4.15.64,6.24.92,4.18.47,6.27.66l6.3.41,6.32.13.79,0a2.65,2.65,0,0,1,1.31.35A2.59,2.59,0,0,1,73,136.08a3.11,3.11,0,0,1-.08.64l-.08.36c0,.25-.12.49-.16.74-.07.5-.17,1-.22,1.51a37.42,37.42,0,0,0-.2,6.18,44.23,44.23,0,0,0,.75,6.17c.22,1,.41,2,.7,3,.14.51.26,1,.41,1.51l.48,1.48A50.44,50.44,0,0,0,79.9,169h0l-2,.53c.2-2.31.48-4.56.85-6.83.19-1.13.39-2.26.65-3.38a20.15,20.15,0,0,1,1-3.37,7,7,0,0,1,.4-.83l.11-.2,0-.11a1.29,1.29,0,0,1,.14-.18,1.16,1.16,0,0,1,.88-.38,1.51,1.51,0,0,1,.74.19,1.43,1.43,0,0,1,.31.24l.14.14.6.54a9.69,9.69,0,0,0,2.7,1.66,5.74,5.74,0,0,0,3,.37A6.29,6.29,0,0,0,92.31,156h0l.33-.24L93,156a12.88,12.88,0,0,0,2.58,1.19,8.7,8.7,0,0,0,2.74.46,5,5,0,0,0,2.55-.62,3.43,3.43,0,0,0,.55-.35l.27-.19.23-.23.55-.55a1.09,1.09,0,0,1,1.79.79v-.07l.94,6.62,1,6.61h0l-1.83-.66a8.12,8.12,0,0,0,.57-.64c.19-.24.37-.52.56-.78a16.69,16.69,0,0,0,1-1.69,27.2,27.2,0,0,0,1.6-3.66,47.38,47.38,0,0,0,1.94-7.87A78.21,78.21,0,0,0,110.5,138l-.3-4.16a2.87,2.87,0,0,1,2.08-2.79c.27-.07.42-.08.59-.12l1-.18q4.07-.74,8.09-1.62c2.67-.61,5.33-1.3,7.93-2.09,1.31-.39,2.58-.85,3.83-1.33a19.27,19.27,0,0,0,3.43-1.72h0l-.66,1.21c0-1.14-.07-2.37-.16-3.57s-.19-2.4-.32-3.61c-.27-2.41-.62-4.81-1-7.21s-.87-4.79-1.39-7.16c-.25-1.2-.54-2.38-.81-3.57l-.89-3.54,0,.1-6.44-17.82-3.23-8.91L119,61h0l.24.38A40.17,40.17,0,0,0,115.19,58c-1.43-1.07-2.93-2-4.46-3a70.38,70.38,0,0,0-9.61-4.86,77.45,77.45,0,0,0-20.87-5.26,87.9,87.9,0,0,0-21.58.43,112.54,112.54,0,0,0-21.05,5.09h0l.39-.23c-.58.52-1.18,1.15-1.75,1.76s-1.13,1.26-1.66,1.92-1.07,1.32-1.59,2-1,1.37-1.52,2a94.76,94.76,0,0,0-5.41,8.69c-.8,1.51-1.62,3-2.33,4.56-.37.78-.76,1.54-1.09,2.32l-1,2.35c-.35.78-.66,1.58-1,2.38l-.92,2.39C19.14,82.22,18.59,83.86,18,85.49Zm-1.82-.71c.59-1.62,1.15-3.23,1.77-4.85l1-2.41c.33-.81.66-1.61,1-2.4L21,72.74c.35-.8.75-1.57,1.12-2.35.74-1.58,1.57-3.11,2.37-4.65a97.53,97.53,0,0,1,5.44-8.9c.5-.72,1-1.45,1.51-2.14s1-1.41,1.58-2.09,1.1-1.36,1.67-2,1.15-1.32,1.82-2l.15-.16.23-.07h0a113.66,113.66,0,0,1,21.46-5.2,97,97,0,0,1,11-.9,93.08,93.08,0,0,1,11.07.47A78.92,78.92,0,0,1,102,48.14a71.42,71.42,0,0,1,9.91,5c1.58,1,3.14,2,4.63,3.1a42.81,42.81,0,0,1,4.33,3.62L121,60l.08.23h0l3.24,8.9,3.28,8.89,6.57,17.77,0,0v0l.95,3.58c.29,1.2.61,2.39.88,3.6.56,2.4,1.06,4.82,1.52,7.25s.83,4.88,1.15,7.34c.16,1.23.3,2.47.42,3.71s.21,2.46.25,3.78l0,.83-.69.38h0a36,36,0,0,1-8.16,2.87c-2.71.7-5.43,1.26-8.16,1.8s-5.45,1-8.18,1.46l-1,.16a1.93,1.93,0,0,0-.69.18,1.08,1.08,0,0,0-.54,1l.29,4.09a89,89,0,0,1-.51,16.71,52.29,52.29,0,0,1-1.89,8.22,30,30,0,0,1-1.6,4c-.3.65-.67,1.27-1,1.9-.21.31-.4.62-.62.92a8.42,8.42,0,0,1-.77.94l-1.57,1.64-.26-2.3h0l-.61-6.66-.63-6.65v-.07a.45.45,0,0,0,.27.37.42.42,0,0,0,.42-.06l-.53.49-.31.27-.35.24a5.27,5.27,0,0,1-.72.43,6.6,6.6,0,0,1-3.22.67,10.44,10.44,0,0,1-3.11-.64,13.29,13.29,0,0,1-2.8-1.39l.66,0h0a7.26,7.26,0,0,1-3.28,1.57,6.73,6.73,0,0,1-3.64-.36,11.19,11.19,0,0,1-3.1-1.77c-.24-.19-.46-.38-.68-.58l-.17-.15,0,0H82a.2.2,0,0,0,.12-.07h0s0,0,0,0l0,.09-.08.17a4.94,4.94,0,0,0-.31.7,17.84,17.84,0,0,0-.81,3.16c-.21,1.08-.36,2.19-.48,3.3-.23,2.21-.36,4.47-.39,6.68l0,4-2-3.47h0a54.51,54.51,0,0,1-7.84-24.49,40.79,40.79,0,0,1,.15-6.53c.05-.54.15-1.09.23-1.63,0-.28.11-.55.16-.82l.09-.42a.45.45,0,0,0,0-.14.41.41,0,0,0-.23-.37.34.34,0,0,0-.22,0H63.2l-6.41-.3a149.08,149.08,0,0,1-25.36-3.83l-3.13-.77-3.09-.88c-1-.28-2.06-.62-3.08-.95s-2.06-.64-3.07-1c-2-.7-4-1.47-6-2.3l-1.5-.64L10,124.28c-1-.47-1.94-.93-3-1.5h0l-.85-.53,0-.86a37.61,37.61,0,0,1,.87-9.8c.28-1.58.68-3.12,1.06-4.66s.84-3.06,1.34-4.56q1.44-4.53,3.14-8.92c.57-1.47,1.15-2.93,1.76-4.38.29-.73.61-1.45.92-2.17l.48-1.09Z"/><path class="cls-5" d="M26,86.33a46.29,46.29,0,0,0-2.39,6c-.67,2.06-1.24,4.15-1.74,6.26s-.9,4.24-1.22,6.39c-.18,1.06-.29,2.15-.44,3.22s-.22,2.16-.33,3.23h0l-.27-.65a70,70,0,0,0,7.12,5c2.49,1.56,5,3,7.63,4.38s5.25,2.66,7.93,3.86c1.34.62,2.7,1.17,4.05,1.76l4.1,1.64L46.27,126c-1.37-.54-2.76-1-4.13-1.59Q38,122.78,34,120.88c-2.67-1.28-5.3-2.62-7.88-4.09-1.28-.74-2.56-1.49-3.81-2.29s-2.47-1.62-3.69-2.55l-.32-.24.05-.41h0c.13-1.1.24-2.19.39-3.28s.29-2.19.5-3.27c.36-2.17.82-4.33,1.34-6.46S21.76,94,22.48,92A48,48,0,0,1,25,85.81Z"/><path class="cls-5" d="M19.44,112.1a23.41,23.41,0,0,0-3.17,1.73A26.94,26.94,0,0,0,13.32,116c-.47.38-.91.81-1.36,1.22s-.87.86-1.26,1.33a23.29,23.29,0,0,0-2.22,2.91l-.93-.57a25.5,25.5,0,0,1,2.23-3.14c.39-.5.85-1,1.27-1.43s.91-.91,1.39-1.33a27.71,27.71,0,0,1,3-2.38,24.55,24.55,0,0,1,3.35-2Z"/><path class="cls-5" d="M131.53,97.41c.57,3.87,1.06,7.74,1.44,11.63.19,1.95.33,3.9.42,5.87a35.07,35.07,0,0,1-.13,6h0l0,.29-.22.15a8.93,8.93,0,0,1-1,.56c-.32.16-.65.3-1,.44-.65.28-1.3.52-2,.75q-2,.69-4,1.23c-1.34.37-2.68.69-4,1s-2.71.58-4.07.85c1.33-.38,2.66-.77,4-1.19s2.63-.85,3.92-1.33,2.57-1,3.82-1.53c.62-.28,1.24-.57,1.83-.89.3-.15.59-.31.88-.48a8.29,8.29,0,0,0,.76-.51l-.26.44h0a33.71,33.71,0,0,0,.2-5.71c-.06-1.93-.18-3.86-.34-5.8-.33-3.86-.76-7.74-1.28-11.58Z"/><path class="cls-5" d="M132.73,120.16a6.7,6.7,0,0,1,.92.39,9.29,9.29,0,0,1,.82.48,12.49,12.49,0,0,1,1.48,1.12,15.81,15.81,0,0,1,1.29,1.3c.41.46.78.94,1.14,1.43l-.88.64c-.35-.45-.71-.89-1.1-1.31a13.49,13.49,0,0,0-1.22-1.17,11.68,11.68,0,0,0-1.35-1,7.33,7.33,0,0,0-.73-.39,4.76,4.76,0,0,0-.7-.29Z"/><path class="cls-5" d="M72.91,139.18a7.93,7.93,0,0,1,2.87.16,7,7,0,0,1,2.62,1.27,7.35,7.35,0,0,1,1.91,2.24,10.53,10.53,0,0,1,1,2.75l-.62,0a7.52,7.52,0,0,1,1.89-4.26,5.29,5.29,0,0,1,2-1.32,5.94,5.94,0,0,1,2.41-.27,4.76,4.76,0,0,1,2.32.86,6.46,6.46,0,0,1,1.67,1.75,12.2,12.2,0,0,1,1.71,4.37l-1.07.09a10.8,10.8,0,0,1,.35-2.54,7.58,7.58,0,0,1,1-2.38,4.59,4.59,0,0,1,2.08-1.73,5.18,5.18,0,0,1,2.66-.24,5.85,5.85,0,0,1,2.44,1,6.76,6.76,0,0,1,1.78,1.88,10.38,10.38,0,0,1,1.11,2.27,11.75,11.75,0,0,1,.59,2.44h-.69a15.18,15.18,0,0,1,.91-2.84,10.58,10.58,0,0,1,1.49-2.56,6.33,6.33,0,0,1,2.31-1.86,5,5,0,0,1,2.89-.31,5.86,5.86,0,0,0-1.45.06,5.36,5.36,0,0,0-1.35.45,5.92,5.92,0,0,0-2.08,1.9,11.6,11.6,0,0,0-1.29,2.53,14.82,14.82,0,0,0-.74,2.74l-.31,1.89-.38-1.9a11.19,11.19,0,0,0-1.74-4.3,6,6,0,0,0-1.59-1.59,4.7,4.7,0,0,0-2-.77,4.07,4.07,0,0,0-2.12.22A3.38,3.38,0,0,0,94,142.52a8.58,8.58,0,0,0-1.19,4.33l-.21,4.72-.87-4.64a11,11,0,0,0-1.51-4A4.53,4.53,0,0,0,87,140.73,4.62,4.62,0,0,0,83.2,142a7.09,7.09,0,0,0-1.85,3.75l-.3,1.68-.32-1.65a10.67,10.67,0,0,0-.86-2.65,7,7,0,0,0-1.69-2.2,6.69,6.69,0,0,0-2.45-1.35A8.16,8.16,0,0,0,72.91,139.18Z"/><path class="cls-3" d="M108.39,123.71l-2,7.89L102,119.44S108.31,121.27,108.39,123.71Z"/><polygon class="cls-1" points="94.19 96.21 95.74 114.72 95.74 119.08 79.59 130.2 92.7 83.3 94.19 96.21"/><path class="cls-2" d="M83.77,126.51a85.45,85.45,0,0,0,7.63-22.13c2-11.57.71-18.78.71-18.78L93,83.51l2.72,31Z"/><polygon class="cls-5" points="93.7 82.74 95.23 109.64 92.61 82.82 93.7 82.74"/><polygon class="cls-3" points="95.69 114.54 93.16 82.42 104.14 128.68 101.52 127.84 95.69 114.54"/><polygon class="cls-5" points="105.31 130.65 95.69 114.54 79.18 130.65 105.31 130.65"/><path class="cls-5" d="M93.18,80.18c2.26,8.23,4.62,16.54,6.86,25s4.33,16.9,6.33,25.23l.32,1.36H77.75l.38-1.39c2.31-8.34,4.7-16.81,7.26-25.22S90.61,88.4,93.18,80.18Zm-.05,3C91,91.3,89,99.32,86.94,107.21S82.58,123,80.23,130.94l-1-1.38h26.13l-1,1.35c-2.06-8-4-15.83-5.84-23.72S94.92,91.29,93.13,83.21Z"/><path class="cls-6" d="M38.54,40.12A14.72,14.72,0,0,0,29,55.58a14.25,14.25,0,0,0,6.81,10.5c6.81,4.41,16.48,3.54,21.67-1.81C68.35,53.09,85.29,29.64,54.37,9.63,54.37,9.63,63.78,30.39,38.54,40.12Z"/><path class="cls-4" d="M56.41,12.34a8.44,8.44,0,0,0-1.3-.6S55.61,11.94,56.41,12.34Z"/><path class="cls-4" d="M70.93,31.29C70,20.13,60,14.15,56.41,12.34,59.44,14,66.49,19.63,63.9,35,61.52,49.17,45.62,51.75,36.27,52a3.39,3.39,0,0,1-3.08-1.71c-.78-1.42-1-3.72,1.61-6.92,0,0-5,4.67-5.39,8.43-.95,9.43,5.17,13.81,5.17,13.81,12.15,9,24-2.07,24-2.07L68.82,47.82S72,44.94,70.93,31.29Z"/><path class="cls-6" d="M101.35,60.74c0,4.63,1.2,10.07,6.41,13.24A13.37,13.37,0,0,0,126.22,69c7-12.11,14.16-34.84-9.25-49.28,0,0,9.08,18.85-9.61,30.25A12.68,12.68,0,0,0,101.35,60.74Z"/><path class="cls-4" d="M102.66,57.47s-.84,15.15,11.25,9.39c7.78-3.71,16-20,12.35-31.51-3-9.33-7.17-13.56-7.17-13.56s14.3,8.42,13.81,21.66S127.53,67,125.38,70.32s-12.17,11.8-20.07,1.74S102.66,57.47,102.66,57.47Z"/><path class="cls-5" d="M50.44,64.1C44,64.1,36,57,36,48.61a16.17,16.17,0,0,1,2.52-8.82l.91.59a15.12,15.12,0,0,0-2.34,8.23c0,7.62,7.45,14.4,13.32,14.4,3.85,0,9.2-1.8,11.15-4.71l.91.61C60.1,62.49,54,64.1,50.44,64.1Z"/><path class="cls-5" d="M118.53,71.81c-6.77,0-12.27-6.51-12.27-14.52a16.17,16.17,0,0,1,2.52-8.82l.92.59a15.07,15.07,0,0,0-2.35,8.23c0,7.41,5,13.43,11.18,13.43a10.54,10.54,0,0,0,8.71-5l.91.61A11.65,11.65,0,0,1,118.53,71.81Z"/><path class="cls-5" d="M124.26,63.33c-6.77,0-12.27-6.51-12.27-14.52a17,17,0,0,1,.33-3.34l1.06.21a16.36,16.36,0,0,0-.3,3.13c0,7.41,5,13.43,11.18,13.43a9.54,9.54,0,0,0,5.13-1.5l.57.93A10.85,10.85,0,0,1,124.26,63.33Z"/><path class="cls-5" d="M128.2,52.08c-5.94,0-11-5-12.07-11.91l1.08-.17c1,6.37,5.6,11,11,11a9.56,9.56,0,0,0,4.31-1l.49,1A10.64,10.64,0,0,1,128.2,52.08Z"/><path class="cls-5" d="M127.06,40.83A11.56,11.56,0,0,1,117.89,36l.87-.66a10.48,10.48,0,0,0,8.3,4.44,9.53,9.53,0,0,0,5.09-1.48l.57.93A10.77,10.77,0,0,1,127.06,40.83Z"/><path class="cls-5" d="M122.27,31.83a5.43,5.43,0,0,1-3.55-1.43l.73-.8a3.84,3.84,0,0,0,4.41.73c1.42-.8,1.35-1.61,1.23-2.85,0-.31-.06-.64-.07-1l1.09,0c0,.31,0,.61.06.91.13,1.29.27,2.75-1.77,3.9A4.31,4.31,0,0,1,122.27,31.83Z"/><path class="cls-5" d="M57.17,57.14c-6.77,0-12.27-6.51-12.27-14.52,0-3.07.32-5.35,2-7.92l.91.59C46.28,37.65,46,39.69,46,42.62,46,50,51,56.05,57.17,56.05a11.67,11.67,0,0,0,9.33-4.94l.9.6A12.59,12.59,0,0,1,57.17,57.14Z"/><path class="cls-5" d="M63,48.36c-6.76,0-12.27-6.51-12.27-14.51,0-.84,0-1.55.08-2.19l1.09.09c0,.61-.08,1.29-.08,2.1,0,7.4,5,13.42,11.18,13.42A11.69,11.69,0,0,0,69.9,44.9l.65.87A12.78,12.78,0,0,1,63,48.36Z"/><path class="cls-5" d="M65.09,37.56c-5.4,0-10.11-4.09-11.71-10.18l1-.28c1.48,5.61,5.76,9.37,10.66,9.37a11.77,11.77,0,0,0,6.75-2.27l.64.88A12.81,12.81,0,0,1,65.09,37.56Z"/><path class="cls-5" d="M64.26,28a10.57,10.57,0,0,1-9.32-5.08l.91-.6a9.43,9.43,0,0,0,8.41,4.59,11.31,11.31,0,0,0,5.36-1.4l.51,1A12.42,12.42,0,0,1,64.26,28Z"/><path class="cls-5" d="M59.27,21.2a4,4,0,0,1-3.33-1.53l.88-.63A3.59,3.59,0,0,0,63,16.86L64,17a4.21,4.21,0,0,1-4,4.18A4.6,4.6,0,0,1,59.27,21.2Z"/><path class="cls-5" d="M45.62,70a19.3,19.3,0,0,1-10.4-3,15.36,15.36,0,0,1-7.3-11.28A15.75,15.75,0,0,1,38.14,39.11c7.9-3,13.1-7.49,15.45-13.2,3.26-7.95-.17-15.75-.21-15.83L51.87,6.71l3.1,2c10.89,7,16.94,15.21,18,24.25C74.06,42.91,69,54,58.26,65A17.61,17.61,0,0,1,45.62,70ZM56.41,12.34a23.17,23.17,0,0,1-.8,14.37C53,33,47.42,37.86,38.93,41.14h0a13.58,13.58,0,0,0-8.85,14.3,13.28,13.28,0,0,0,6.33,9.73c6.32,4.09,15.43,3.35,20.29-1.66,7.15-7.35,15.39-18.59,14.07-30.29C69.9,25.59,65.08,18.58,56.41,12.34Z"/><path class="cls-5" d="M114.48,77a13.94,13.94,0,0,1-7.29-2.06c-4.59-2.8-7-7.7-6.93-14.18a13.86,13.86,0,0,1,6.53-11.65c7.41-4.52,11.21-10.74,11.3-18.48A25.74,25.74,0,0,0,116,20.23l-1.61-3.35,3.17,1.95c12.25,7.56,17.88,18.54,16.29,31.75a51.35,51.35,0,0,1-6.68,19A14.83,14.83,0,0,1,118,76.52,14.4,14.4,0,0,1,114.48,77Zm4.61-54.49c1.74,6.09,3.46,19.54-11.16,28.46a11.64,11.64,0,0,0-5.49,9.81c-.06,5.75,1.93,9.89,5.88,12.3a11.87,11.87,0,0,0,9.17,1.36,12.65,12.65,0,0,0,7.79-5.91,49.25,49.25,0,0,0,6.4-18.19h0C133.06,38.84,128.83,29.49,119.09,22.48Z"/><path class="cls-5" d="M60.49,125.25a25,25,0,0,0,6-1.15,23.21,23.21,0,0,0,5.37-2.73,23.88,23.88,0,0,0,4.37-4.09,22.87,22.87,0,0,0,3-5.13,21.82,21.82,0,0,0,1.41-5.78,22.3,22.3,0,0,0-.33-5.94,21.76,21.76,0,0,0-2-5.57,22.18,22.18,0,0,0-3.55-4.73A22.83,22.83,0,0,0,70,86.61a21.6,21.6,0,0,0-5.56-2,23,23,0,0,0-5.91-.31,22.3,22.3,0,0,0-5.75,1.41,22.48,22.48,0,0,0-5.11,3,23.62,23.62,0,0,0-4,4.37l-.81,1.25-.2.32-.17.33-.34.67-.35.66c-.12.23-.2.46-.3.69-.18.47-.39.93-.56,1.4a26.36,26.36,0,0,0-1.26,5.95,18.77,18.77,0,0,1,0-3.09l.07-.78,0-.39.08-.38.32-1.53a21.1,21.1,0,0,1,2.51-5.74,22.36,22.36,0,0,1,4.18-4.72,21.59,21.59,0,0,1,11.53-4.84,23.58,23.58,0,0,1,6.33.3,21.41,21.41,0,0,1,11,5.91,21.58,21.58,0,0,1,5.84,11.06,23.82,23.82,0,0,1,.27,6.31A21.29,21.29,0,0,1,77,118a22.66,22.66,0,0,1-4.71,4.14,22.29,22.29,0,0,1-5.7,2.51l-1.52.33-.38.08-.38,0-.77.08A21.14,21.14,0,0,1,60.49,125.25Z"/><circle class="cls-5" cx="62.12" cy="102.75" r="18.76"/><ellipse class="cls-7" cx="66.28" cy="101.03" rx="10.4" ry="10.79"/><path class="cls-5" d="M128.18,108.35a16,16,0,0,0-.89-3.91,13.67,13.67,0,0,0-1.9-3.43,12.57,12.57,0,0,0-6.2-4.43,11.78,11.78,0,0,0-7.51.25,12.2,12.2,0,0,0-5.85,4.74,12.66,12.66,0,0,0-2,7.34,15.76,15.76,0,0,0,.19,1.93,15.21,15.21,0,0,0,.51,1.87,12.62,12.62,0,0,0,1.8,3.45,12.41,12.41,0,0,0,6.32,4.45,12.19,12.19,0,0,0,7.86-.29,11.81,11.81,0,0,1-8,.83,12.11,12.11,0,0,1-3.81-1.62,13.26,13.26,0,0,1-5.16-6.46,14.2,14.2,0,0,1-.6-2,16.35,16.35,0,0,1-.26-2.09,13.91,13.91,0,0,1,2.06-8.11,13.06,13.06,0,0,1,6.49-5.34,12.54,12.54,0,0,1,15,4.95,12.82,12.82,0,0,1,1.67,3.81A13.37,13.37,0,0,1,128.18,108.35Z"/><ellipse class="cls-5" cx="114.6" cy="107.26" rx="11.18" ry="11.61"/><ellipse class="cls-7" cx="112.86" cy="104.7" rx="8.72" ry="9.05"/><path class="cls-8" d="M110.73,106.08a30.09,30.09,0,0,0,3.55,2.27,29.16,29.16,0,0,0-3.1-2.87,28.28,28.28,0,0,0,2.27-3.56,30.07,30.07,0,0,0-2.86,3.1,22.14,22.14,0,0,0-3.56-2.27,22.24,22.24,0,0,0,3.1,2.87,22.14,22.14,0,0,0-2.27,3.56A22.24,22.24,0,0,0,110.73,106.08Z"/><path class="cls-1" d="M85,67.18S64.3,52.47,27.82,55.74c0,0-7.44-.36-10.53,11.44s.91,17.6,2.91,18.33S58.94,87.29,76.87,96.2c0,0,5.58.74,9.57-10.51S89.35,70.08,85,67.18Z"/><path class="cls-2" d="M20.2,62s-2.09,6.41-1.5,9.26.91-1.91,3.63-3.63,7.94-9.53,7.53-10-4-1-4-1,8.17-1,8.61-.94,0,.71,0,.71-6.23,5.84-6.85,11.12A93.28,93.28,0,0,0,27,77.2s-4.28-.81-6.81,2.32-2.31,2.76-2.31,2.76S13.89,69.08,20.2,62Z"/><path class="cls-5" d="M27.78,77.94a9.32,9.32,0,0,0-2.7.78,7.87,7.87,0,0,0-2.35,1.59,8.69,8.69,0,0,0-.93,1.08,9,9,0,0,0-.66,1.27,7.46,7.46,0,0,0-.43,1.39c-.12.48-.13,1-.21,1.46h-.61c0-.52,0-1,.1-1.57a8.62,8.62,0,0,1,.37-1.56A8.72,8.72,0,0,1,21,80.9a9.16,9.16,0,0,1,3.51-3.31A11.57,11.57,0,0,1,26,76.92a9.34,9.34,0,0,1,1.6-.45Z"/><path class="cls-2" d="M36.67,55.28s-3,.29-6.17,6.14a22.92,22.92,0,0,0-2.82,11.32s-.58,4.87,2,5,4.89-3.36,15.76-4.26S68.7,76.79,68.7,76.79,67.12,72.42,61,71.66h0c2-2.28-1.6-6.06-4.65-6.35a56.26,56.26,0,0,0-6.08-.12c-13.37.68-4-9.27-4-9.27S38.32,54.57,36.67,55.28Z"/><path class="cls-1" d="M100.22,75.09s14.12-6.32,28.66-2.72a3.16,3.16,0,0,1,1.1.51c2.19,1.51,9.65,7.83,6.8,21.71a3.49,3.49,0,0,1-3.39,2.89,93.2,93.2,0,0,0-27.09,4.06s-4.56,2.29-7.54-13.65c0-.1,0-.2,0-.3C98.57,86.23,97.56,76.1,100.22,75.09Z"/><path class="cls-2" d="M105.47,86.56c0-.24-.23-7.5,5.22-7.86s10.5-2,12.5,1.77-.67,9-.67,9-10.44,1.07-13,3.12A16.59,16.59,0,0,1,115,90.21s-5.44,1.47-7.3,3c0,0-2.42-2.37-.87-2.42,0,0,1.18-.26,0-1.58A4.38,4.38,0,0,1,105.47,86.56Z"/><path class="cls-3" d="M104.41,74.48s.32,8.54.54,9.77,2.73,8.93,2.73,8.93-4,3.2-2.86,7.6c0,0-3.79-2.26-5-8.1S98.39,80.28,99,77.92s.53-2.37,1.8-2.56A33.49,33.49,0,0,0,104.41,74.48Z"/><path class="cls-3" d="M106,88.37s-2.46-10,.77-11.55,17.22-3.78,20.88,0,2.36,12,2.36,12S114.53,90.22,109.36,93a11.34,11.34,0,0,0-2.73,1.77c-1.26,1.14-2.45,4.44-1.49,5.9s8.66-1.16,8.66-1.16l21.49-2.61,2.3-10.23a50,50,0,0,0-3.23-8.3c-1.75-3.14-3.61-5.21-5.65-5.58a39.5,39.5,0,0,0-14.57-.72c-7,1.09-9.73,2.42-9.73,2.42S104.69,87,106,88.37Z"/><path class="cls-3" d="M50.23,55.92c-.67,0,18.53,2.84,22.68,11.62s-3.38,11.84-3.38,11.84S48.88,74.86,35.81,77.2l-8.13.46s-3.43.38-5.31,2.24a8,8,0,0,0-1.94,4.92L53.9,88.91l23.49,6.47s3.68.52,8.17-9.31,2.11-16.92,2.11-16.92S70,57,50.23,55.92Z"/><rect class="cls-5" x="64.77" y="51.86" width="18.12" height="1.09" transform="translate(13.97 120.33) rotate(-83.97)"/><path class="cls-5" d="M104.61,73.61a83.37,83.37,0,0,0,1,9.86,40.49,40.49,0,0,0,1.07,4.79,13.32,13.32,0,0,0,1.93,4.27h0l-.91-.25A59.83,59.83,0,0,1,115,90.14a64.84,64.84,0,0,1,7.46-1.24,48.78,48.78,0,0,1,7.55-.21,37.73,37.73,0,0,1,7.47,1.17l-.18.7a37.74,37.74,0,0,0-7.33-1,49.3,49.3,0,0,0-7.38.42,61.82,61.82,0,0,0-7.27,1.42,59.23,59.23,0,0,0-7,2.26l-.59.24-.32-.5h0a14.25,14.25,0,0,1-1.93-4.86,40.48,40.48,0,0,1-.85-5,83.62,83.62,0,0,1-.5-10Z"/><path class="cls-5" d="M108.33,93.68a5.88,5.88,0,0,0-.87.55,5.68,5.68,0,0,0-.79.76,5.87,5.87,0,0,0-1.1,1.93,7.46,7.46,0,0,0-.31,2.27c0,.39.07.78.09,1.17l.24,1.17-.55.18c-.13-.4-.26-.8-.38-1.21a12.74,12.74,0,0,1-.22-1.26,7.87,7.87,0,0,1,.11-2.6,7,7,0,0,1,1.09-2.44,6.73,6.73,0,0,1,.88-1,6.44,6.44,0,0,1,1.13-.86Z"/><path class="cls-5" d="M99.76,74a50,50,0,0,1,10.69-2.89,49.14,49.14,0,0,1,11-.56,42.41,42.41,0,0,1,5.49.67l1.36.29.67.14a3.36,3.36,0,0,1,.79.27,3.68,3.68,0,0,1,.7.41c.19.14.4.28.58.43.38.29.73.6,1.09.92a19.48,19.48,0,0,1,5.53,9.72,28,28,0,0,1,.08,11.16,5.76,5.76,0,0,1-.17.77,4.9,4.9,0,0,1-.33.79,4.73,4.73,0,0,1-1.05,1.36,4.54,4.54,0,0,1-1.53.87,4.31,4.31,0,0,1-.88.19l-.45,0H133q-2.67,0-5.34.24a101.87,101.87,0,0,0-21,4.08l.23-.09-.19.08-.11,0-.23.06L106,103a3.33,3.33,0,0,1-.78,0l-.37-.07-.34-.11-.33-.13-.29-.15a5.74,5.74,0,0,1-1-.73c-.29-.27-.53-.55-.79-.83a16.22,16.22,0,0,1-2.07-3.6,40.36,40.36,0,0,1-2.17-7.47l-.19-.95-.1-.47c0-.16-.06-.28-.09-.52s0-.36-.06-.53l0-.48-.07-1c-.09-1.28-.13-2.57-.13-3.86a26.71,26.71,0,0,1,.28-4,10.55,10.55,0,0,1,.52-2.08,5.13,5.13,0,0,1,.6-1.12,2.64,2.64,0,0,1,.23-.29A2.56,2.56,0,0,1,99,74.4,2.73,2.73,0,0,1,99.76,74Zm.93,2.27s-.08,0-.18.18a2.81,2.81,0,0,0-.27.55,8.63,8.63,0,0,0-.36,1.57,24.62,24.62,0,0,0-.17,3.57c0,1.22.08,2.45.18,3.67l.09.92,0,.45c0,.15,0,.33.06.41l.37,1.76a40.41,40.41,0,0,0,2,7,13.58,13.58,0,0,0,1.64,2.94c.17.17.33.38.5.53a3,3,0,0,0,.51.36l.12.08.11,0,.11,0h.09c.06,0,.11,0,.15,0h0l-.08,0,.22-.09a99.17,99.17,0,0,1,21.63-3.73c1.83-.09,3.67-.13,5.51-.09h.58a1.78,1.78,0,0,0,.45-.08,2.51,2.51,0,0,0,.82-.44,2.69,2.69,0,0,0,.62-.76,2.37,2.37,0,0,0,.2-.46,2.79,2.79,0,0,0,.13-.55,25.33,25.33,0,0,0,.18-10.4,17.79,17.79,0,0,0-4.95-8.95c-.32-.29-.64-.58-1-.84-.16-.14-.34-.26-.51-.39a2.83,2.83,0,0,0-.46-.28,2,2,0,0,0-.5-.17L128,73l-1.3-.27a37.39,37.39,0,0,0-5.28-.57,46,46,0,0,0-10.59,1A52.11,52.11,0,0,0,100.69,76.23Z"/><path class="cls-5" d="M36.84,55.75a12.76,12.76,0,0,0-2.54,1.61c-.38.34-.78.66-1.13,1l-.53.54-.49.59a17,17,0,0,0-2.91,5.34l-.43,1.48c-.13.49-.19,1-.29,1.5a24.06,24.06,0,0,0-.33,3.06,4.92,4.92,0,0,0,0,.77l0,.77,0,1.55.34,3.08-.88-.77h0A138.59,138.59,0,0,1,42.4,77.44q7.32.94,14.51,2.59a124.25,124.25,0,0,1,14.16,4l3.47,1.25c1.13.46,2.26,1,3.4,1.42l1.7.71,1.66.8,3.31,1.6-.35.69L81,89l-1.66-.77-1.7-.68L74.2,86.23l-3.46-1.18a124.71,124.71,0,0,0-14.1-3.78Q49.49,79.77,42.22,79a136.32,136.32,0,0,0-14.53-.87h-.83l-.06-.76-.26-3.25,0-1.63v-.82a5.51,5.51,0,0,1,.05-.81,23.39,23.39,0,0,1,.45-3.24c.12-.54.2-1.08.36-1.6l.51-1.57a18.38,18.38,0,0,1,3.31-5.65,14.69,14.69,0,0,1,5.25-3.95Z"/><path class="cls-5" d="M84.1,68.47a50.08,50.08,0,0,0-6.22-3.53l-1.64-.78c-.55-.26-1.11-.48-1.67-.73l-1.68-.7-1.7-.65a96.73,96.73,0,0,0-14-4l-3.61-.63c-.61-.09-1.2-.22-1.81-.29l-1.82-.22c-1.22-.13-2.43-.3-3.65-.41l-3.67-.23-1.83-.1H35.24c-.61,0-1.23,0-1.84.07l-1.83.11-3.68.22h-.11a4.68,4.68,0,0,0-.59,0,5.12,5.12,0,0,0-.64.12,5,5,0,0,0-.63.19,3.32,3.32,0,0,0-.62.24A8.65,8.65,0,0,0,23,58.6,13.23,13.23,0,0,0,19.75,63l-.32.62-.26.66c-.16.45-.36.88-.49,1.33-.27.91-.57,1.81-.76,2.76A29.59,29.59,0,0,0,17.11,74a20.06,20.06,0,0,0,.49,5.59,12.47,12.47,0,0,0,.92,2.57,6.61,6.61,0,0,0,1.49,2,1.35,1.35,0,0,0,.88.38,4.6,4.6,0,0,0,.65.08l.71.07c1,.09,1.94.17,2.92.24l5.88.45q5.89.47,11.77,1.12c2,.26,3.92.46,5.88.76l2.93.42,2.93.49c7.81,1.28,15.61,3,23.11,6.34l-.57-.17h.15c.11,0,.21,0,.34-.05a3.58,3.58,0,0,0,.72-.24,6.43,6.43,0,0,0,1.47-.88,11.51,11.51,0,0,0,2.49-2.88l.28-.42.25-.44.49-.89c.3-.62.61-1.23.88-1.87s.52-1.29.76-2,.49-1.36.69-2,.45-1.36.62-2l.28-1,.23-1a19.61,19.61,0,0,0,.52-4,7.5,7.5,0,0,0-.72-3.53A7.23,7.23,0,0,0,84.1,68.47Zm1.78-2.59a10.32,10.32,0,0,1,3.53,3.73,10.64,10.64,0,0,1,1.14,5A22.68,22.68,0,0,1,90,79.33l-.24,1.13-.29,1.11c-.18.74-.41,1.46-.62,2.19a34.44,34.44,0,0,1-3.64,8.51A15.07,15.07,0,0,1,82,96a10.66,10.66,0,0,1-2.31,1.39,8.32,8.32,0,0,1-1.36.44c-.24.06-.5.08-.75.12a4.32,4.32,0,0,1-1,0h0l-.29,0-.27-.13a64.25,64.25,0,0,0-10.68-4.15c-.91-.3-1.86-.51-2.79-.77s-1.87-.52-2.82-.73c-1.9-.42-3.79-.89-5.71-1.24l-2.87-.55-2.89-.48c-1.92-.34-3.86-.58-5.79-.88q-5.82-.78-11.66-1.38L25,87.06l-2.95-.29-.75-.08c-.25,0-.48,0-.82-.12a2.9,2.9,0,0,1-.93-.28,4.68,4.68,0,0,1-.82-.55,8.52,8.52,0,0,1-1.94-2.69,14.22,14.22,0,0,1-1-3A21.75,21.75,0,0,1,15.3,74a31.52,31.52,0,0,1,.9-6c.2-1,.52-2,.82-2.92.14-.48.36-1,.54-1.42l.29-.71.34-.69a15,15,0,0,1,3.74-4.94,10.34,10.34,0,0,1,2.71-1.68,4.81,4.81,0,0,1,.75-.28,5,5,0,0,1,.78-.22c.26-.07.54-.11.81-.16a5.89,5.89,0,0,1,.88-.05h-.12l3.73-.23,1.86-.12c.62,0,1.24-.08,1.86-.07l3.74-.05,1.86,0,1.87.08,3.73.14c1.25.07,2.49.21,3.73.31l1.86.16c.63.06,1.24.17,1.86.25l3.71.53a96.82,96.82,0,0,1,14.56,3.62l1.78.61,1.76.69c.58.23,1.18.44,1.75.7l1.73.76A51.8,51.8,0,0,1,85.88,65.88Z"/></svg>